G75*
%MOIN*%
%OFA0B0*%
%FSLAX24Y24*%
%IPPOS*%
%LPD*%
%AMOC8*
5,1,8,0,0,1.08239X$1,22.5*
%
%ADD10C,0.0476*%
%ADD11OC8,0.0850*%
%ADD12C,0.0560*%
%ADD13C,0.0160*%
%ADD14R,0.0396X0.0396*%
D10*
X010829Y014372D02*
X011305Y014372D01*
X011305Y015159D02*
X010829Y015159D01*
X010829Y015946D02*
X011305Y015946D01*
X011305Y016734D02*
X010829Y016734D01*
X010829Y017521D02*
X011305Y017521D01*
X011305Y018309D02*
X010829Y018309D01*
X010829Y019096D02*
X011305Y019096D01*
X011305Y019883D02*
X010829Y019883D01*
X016817Y019883D02*
X017292Y019883D01*
X017292Y019096D02*
X016817Y019096D01*
X016817Y018309D02*
X017292Y018309D01*
X017292Y017521D02*
X016817Y017521D01*
X016817Y016734D02*
X017292Y016734D01*
X017292Y015946D02*
X016817Y015946D01*
X016817Y015159D02*
X017292Y015159D01*
X017292Y014372D02*
X016817Y014372D01*
D11*
X021600Y016100D03*
X021600Y017100D03*
X021600Y018100D03*
X021600Y012600D03*
X022600Y012600D03*
X022600Y008600D03*
X021600Y008600D03*
X005100Y008600D03*
X004100Y008600D03*
X004100Y012600D03*
X005100Y012600D03*
X013600Y027100D03*
X014600Y027100D03*
X015600Y027100D03*
D12*
X020100Y022880D02*
X020100Y022320D01*
X021100Y022320D02*
X021100Y022880D01*
X022100Y022880D02*
X022100Y022320D01*
D13*
X003100Y008600D02*
X005100Y006100D01*
X018600Y006100D01*
X021600Y007100D01*
X022600Y007600D01*
X022600Y008600D01*
X022600Y012600D01*
X021600Y012600D02*
X021600Y008600D01*
X021600Y007600D01*
X018600Y006600D01*
X005600Y006600D01*
X004100Y008600D01*
X004100Y012600D01*
X005100Y012600D02*
X006600Y012600D01*
X008100Y013600D01*
X010372Y013872D01*
X011305Y014372D01*
X011305Y015159D02*
X010541Y015159D01*
X009100Y016100D01*
X008100Y017100D02*
X008309Y017309D01*
X011305Y018309D01*
X012309Y018309D01*
X016600Y022600D01*
X020100Y022600D01*
X020100Y021600D02*
X021100Y022600D01*
X022100Y022600D02*
X023600Y018100D01*
X023600Y026600D01*
X020100Y028600D01*
X015600Y027100D01*
X014600Y027100D02*
X013600Y025100D01*
X009100Y023600D01*
X007100Y024100D02*
X013600Y027100D01*
X016100Y021600D02*
X020100Y021600D01*
X016817Y019883D02*
X021383Y017883D01*
X021600Y018100D01*
X021600Y017100D02*
X021596Y017096D01*
X016817Y019096D01*
X016817Y016734D02*
X015466Y016734D01*
X013600Y018600D01*
X013600Y019100D01*
X016100Y021600D01*
X019600Y015100D02*
X021600Y016100D01*
X021600Y012600D01*
X019600Y015100D02*
X018159Y015159D01*
X016817Y015159D01*
X016817Y014372D02*
X017072Y014372D01*
X018500Y014800D01*
X019600Y015100D01*
X021600Y016100D02*
X023600Y018100D01*
X008100Y017100D02*
X008100Y013600D01*
X005100Y012600D02*
X005100Y008600D01*
X003100Y008600D02*
X003100Y016600D01*
X003127Y021938D01*
X007100Y024100D01*
D14*
X009100Y023600D03*
X009100Y016100D03*
M02*
