%
M48
M72
T01C0.0236
T02C0.0276
T03C0.0320
T04C0.0360
T05C0.0394
T06C0.0400
T07C0.1181
%
T01
X9100Y14100
X10151Y14100
X12600Y17100
X13600Y17100
X22600Y13100
T02
X16817Y13159
X16817Y12372
X16817Y13946
X16817Y14734
X16817Y15521
X16817Y16309
X16817Y17096
X16817Y17883
X11305Y17883
X11305Y17096
X11305Y16309
X11305Y15521
X11305Y14734
X11305Y13946
X11305Y13159
X11305Y12372
T03
X13100Y22100
X15100Y22100
X19100Y22100
X9100Y22100
T04
X20100Y20600
X21100Y20600
X22100Y20600
T05
X16100Y24100
X15100Y24100
X14100Y24100
X13100Y24100
T06
X21600Y16100
X21600Y15100
X21600Y14100
X21600Y10600
X22600Y10600
X22600Y6600
X21600Y6600
X5100Y6600
X4100Y6600
X4100Y10600
X5100Y10600
T07
X2100Y2100
X2100Y28600
X26600Y28600
X26600Y2100
M30
