G75*
%MOIN*%
%OFA0B0*%
%FSLAX24Y24*%
%IPPOS*%
%LPD*%
%AMOC8*
5,1,8,0,0,1.08239X$1,22.5*
%
%ADD10R,0.0594X0.0594*%
%ADD11C,0.0594*%
%ADD12C,0.0476*%
%ADD13OC8,0.0850*%
%ADD14C,0.0560*%
%ADD15OC8,0.0520*%
%ADD16C,0.0160*%
%ADD17R,0.0396X0.0396*%
D10*
X016100Y024100D03*
D11*
X015100Y024100D03*
X014100Y024100D03*
X013100Y024100D03*
D12*
X011305Y017883D02*
X010829Y017883D01*
X010829Y017096D02*
X011305Y017096D01*
X011305Y016309D02*
X010829Y016309D01*
X010829Y015521D02*
X011305Y015521D01*
X011305Y014734D02*
X010829Y014734D01*
X010829Y013946D02*
X011305Y013946D01*
X011305Y013159D02*
X010829Y013159D01*
X010829Y012372D02*
X011305Y012372D01*
X016817Y012372D02*
X017292Y012372D01*
X017292Y013159D02*
X016817Y013159D01*
X016817Y013946D02*
X017292Y013946D01*
X017292Y014734D02*
X016817Y014734D01*
X016817Y015521D02*
X017292Y015521D01*
X017292Y016309D02*
X016817Y016309D01*
X016817Y017096D02*
X017292Y017096D01*
X017292Y017883D02*
X016817Y017883D01*
D13*
X021600Y016100D03*
X021600Y015100D03*
X021600Y014100D03*
X021600Y010600D03*
X022600Y010600D03*
X022600Y006600D03*
X021600Y006600D03*
X005100Y006600D03*
X004100Y006600D03*
X004100Y010600D03*
X005100Y010600D03*
D14*
X020100Y020320D02*
X020100Y020880D01*
X021100Y020880D02*
X021100Y020320D01*
X022100Y020320D02*
X022100Y020880D01*
D15*
X019100Y022100D03*
X015100Y022100D03*
X013100Y022100D03*
X009100Y022100D03*
D16*
X004600Y004600D02*
X018600Y004600D01*
X021600Y005600D01*
X021600Y006600D01*
X021600Y010600D01*
X021600Y014100D01*
X019600Y013100D01*
X018159Y013159D01*
X016817Y013159D01*
X016817Y012372D02*
X017072Y012372D01*
X018500Y012800D01*
X019600Y013100D01*
X021600Y014100D02*
X023600Y016100D01*
X022100Y020600D01*
X022100Y021100D02*
X021100Y022100D01*
X019100Y022100D01*
X020100Y020600D02*
X018600Y019100D01*
X015600Y019100D01*
X013600Y017100D01*
X012600Y017100D02*
X011309Y016309D01*
X011305Y016309D01*
X011096Y016100D01*
X010100Y016100D01*
X009600Y015600D01*
X009600Y013600D01*
X010828Y012372D01*
X011305Y012372D01*
X011033Y012100D01*
X007600Y012100D01*
X006100Y010600D01*
X005100Y010600D01*
X005100Y006600D01*
X004100Y006600D02*
X004100Y010600D01*
X005100Y019600D01*
X008600Y024100D01*
X013100Y024100D01*
X014100Y024100D02*
X012600Y014100D01*
X012659Y014159D01*
X011305Y013159D01*
X011305Y013946D02*
X010151Y014100D01*
X009100Y014100D02*
X008100Y016600D01*
X008600Y018600D01*
X011600Y018600D01*
X012600Y019600D01*
X012600Y021100D01*
X013100Y021600D01*
X013100Y022100D01*
X016100Y024100D02*
X017100Y023100D01*
X022600Y023100D01*
X024600Y021100D01*
X024600Y015100D01*
X022600Y013100D01*
X021596Y015096D02*
X021600Y015100D01*
X021596Y015096D02*
X016817Y017096D01*
X016817Y017883D02*
X021383Y015883D01*
X021600Y016100D01*
X019100Y018600D02*
X021100Y020600D01*
X019100Y018600D02*
X016600Y018600D01*
X014600Y017100D01*
X015100Y015600D01*
X015966Y014734D01*
X016817Y014734D01*
X022600Y010600D02*
X022600Y006600D01*
X004600Y004600D02*
X004100Y006600D01*
D17*
X009100Y014100D03*
X010151Y014100D03*
X012600Y017100D03*
X013600Y017100D03*
X022600Y013100D03*
M02*
