%
M48
M72
T01C0.0276
T02C0.0320
T03C0.0354
T04C0.0360
T05C0.0400
T06C0.0440
T07C0.0551
T08C0.1181
%
T01
X11305Y14372
X11305Y15159
X11305Y15946
X11305Y16734
X11305Y17521
X11305Y18309
X11305Y19096
X11305Y19883
X16817Y19883
X16817Y19096
X16817Y18309
X16817Y17521
X16817Y16734
X16817Y15946
X16817Y15159
X16817Y14372
T02
X7100Y16100
X7100Y20100
X4600Y21600
X4100Y22350
X3600Y21600
T03
X7998Y24285
X7998Y29009
X12722Y29009
X13509Y26647
X12722Y24285
T04
X20100Y22600
X21100Y22600
X22100Y22600
T05
X25100Y22600
X26600Y22600
X21600Y18100
X21600Y17100
X21600Y16100
X21600Y12600
X22600Y12600
X22600Y8600
X21600Y8600
X5100Y8600
X4100Y8600
X4100Y12600
X5100Y12600
T06
X4600Y15600
X4600Y19600
T07
X19616Y25923
X21584Y25923
T08
X2100Y2100
X25600Y2100
X26100Y27600
X2100Y27600
M30
