G75*
%MOIN*%
%OFA0B0*%
%FSLAX24Y24*%
%IPPOS*%
%LPD*%
%AMOC8*
5,1,8,0,0,1.08239X$1,22.5*
%
%ADD10C,0.0000*%
%ADD11C,0.0060*%
%ADD12C,0.0240*%
%ADD13C,0.0040*%
%ADD14C,0.0050*%
%ADD15C,0.0080*%
D10*
X000100Y002080D02*
X000100Y031576D01*
X027970Y031576D01*
X027970Y002080D01*
X000100Y002080D01*
X001509Y004080D02*
X001511Y004128D01*
X001517Y004176D01*
X001527Y004223D01*
X001540Y004269D01*
X001558Y004314D01*
X001578Y004358D01*
X001603Y004400D01*
X001631Y004439D01*
X001661Y004476D01*
X001695Y004510D01*
X001732Y004542D01*
X001770Y004571D01*
X001811Y004596D01*
X001854Y004618D01*
X001899Y004636D01*
X001945Y004650D01*
X001992Y004661D01*
X002040Y004668D01*
X002088Y004671D01*
X002136Y004670D01*
X002184Y004665D01*
X002232Y004656D01*
X002278Y004644D01*
X002323Y004627D01*
X002367Y004607D01*
X002409Y004584D01*
X002449Y004557D01*
X002487Y004527D01*
X002522Y004494D01*
X002554Y004458D01*
X002584Y004420D01*
X002610Y004379D01*
X002632Y004336D01*
X002652Y004292D01*
X002667Y004247D01*
X002679Y004200D01*
X002687Y004152D01*
X002691Y004104D01*
X002691Y004056D01*
X002687Y004008D01*
X002679Y003960D01*
X002667Y003913D01*
X002652Y003868D01*
X002632Y003824D01*
X002610Y003781D01*
X002584Y003740D01*
X002554Y003702D01*
X002522Y003666D01*
X002487Y003633D01*
X002449Y003603D01*
X002409Y003576D01*
X002367Y003553D01*
X002323Y003533D01*
X002278Y003516D01*
X002232Y003504D01*
X002184Y003495D01*
X002136Y003490D01*
X002088Y003489D01*
X002040Y003492D01*
X001992Y003499D01*
X001945Y003510D01*
X001899Y003524D01*
X001854Y003542D01*
X001811Y003564D01*
X001770Y003589D01*
X001732Y003618D01*
X001695Y003650D01*
X001661Y003684D01*
X001631Y003721D01*
X001603Y003760D01*
X001578Y003802D01*
X001558Y003846D01*
X001540Y003891D01*
X001527Y003937D01*
X001517Y003984D01*
X001511Y004032D01*
X001509Y004080D01*
X001509Y029580D02*
X001511Y029628D01*
X001517Y029676D01*
X001527Y029723D01*
X001540Y029769D01*
X001558Y029814D01*
X001578Y029858D01*
X001603Y029900D01*
X001631Y029939D01*
X001661Y029976D01*
X001695Y030010D01*
X001732Y030042D01*
X001770Y030071D01*
X001811Y030096D01*
X001854Y030118D01*
X001899Y030136D01*
X001945Y030150D01*
X001992Y030161D01*
X002040Y030168D01*
X002088Y030171D01*
X002136Y030170D01*
X002184Y030165D01*
X002232Y030156D01*
X002278Y030144D01*
X002323Y030127D01*
X002367Y030107D01*
X002409Y030084D01*
X002449Y030057D01*
X002487Y030027D01*
X002522Y029994D01*
X002554Y029958D01*
X002584Y029920D01*
X002610Y029879D01*
X002632Y029836D01*
X002652Y029792D01*
X002667Y029747D01*
X002679Y029700D01*
X002687Y029652D01*
X002691Y029604D01*
X002691Y029556D01*
X002687Y029508D01*
X002679Y029460D01*
X002667Y029413D01*
X002652Y029368D01*
X002632Y029324D01*
X002610Y029281D01*
X002584Y029240D01*
X002554Y029202D01*
X002522Y029166D01*
X002487Y029133D01*
X002449Y029103D01*
X002409Y029076D01*
X002367Y029053D01*
X002323Y029033D01*
X002278Y029016D01*
X002232Y029004D01*
X002184Y028995D01*
X002136Y028990D01*
X002088Y028989D01*
X002040Y028992D01*
X001992Y028999D01*
X001945Y029010D01*
X001899Y029024D01*
X001854Y029042D01*
X001811Y029064D01*
X001770Y029089D01*
X001732Y029118D01*
X001695Y029150D01*
X001661Y029184D01*
X001631Y029221D01*
X001603Y029260D01*
X001578Y029302D01*
X001558Y029346D01*
X001540Y029391D01*
X001527Y029437D01*
X001517Y029484D01*
X001511Y029532D01*
X001509Y029580D01*
X025009Y004080D02*
X025011Y004128D01*
X025017Y004176D01*
X025027Y004223D01*
X025040Y004269D01*
X025058Y004314D01*
X025078Y004358D01*
X025103Y004400D01*
X025131Y004439D01*
X025161Y004476D01*
X025195Y004510D01*
X025232Y004542D01*
X025270Y004571D01*
X025311Y004596D01*
X025354Y004618D01*
X025399Y004636D01*
X025445Y004650D01*
X025492Y004661D01*
X025540Y004668D01*
X025588Y004671D01*
X025636Y004670D01*
X025684Y004665D01*
X025732Y004656D01*
X025778Y004644D01*
X025823Y004627D01*
X025867Y004607D01*
X025909Y004584D01*
X025949Y004557D01*
X025987Y004527D01*
X026022Y004494D01*
X026054Y004458D01*
X026084Y004420D01*
X026110Y004379D01*
X026132Y004336D01*
X026152Y004292D01*
X026167Y004247D01*
X026179Y004200D01*
X026187Y004152D01*
X026191Y004104D01*
X026191Y004056D01*
X026187Y004008D01*
X026179Y003960D01*
X026167Y003913D01*
X026152Y003868D01*
X026132Y003824D01*
X026110Y003781D01*
X026084Y003740D01*
X026054Y003702D01*
X026022Y003666D01*
X025987Y003633D01*
X025949Y003603D01*
X025909Y003576D01*
X025867Y003553D01*
X025823Y003533D01*
X025778Y003516D01*
X025732Y003504D01*
X025684Y003495D01*
X025636Y003490D01*
X025588Y003489D01*
X025540Y003492D01*
X025492Y003499D01*
X025445Y003510D01*
X025399Y003524D01*
X025354Y003542D01*
X025311Y003564D01*
X025270Y003589D01*
X025232Y003618D01*
X025195Y003650D01*
X025161Y003684D01*
X025131Y003721D01*
X025103Y003760D01*
X025078Y003802D01*
X025058Y003846D01*
X025040Y003891D01*
X025027Y003937D01*
X025017Y003984D01*
X025011Y004032D01*
X025009Y004080D01*
X025509Y029580D02*
X025511Y029628D01*
X025517Y029676D01*
X025527Y029723D01*
X025540Y029769D01*
X025558Y029814D01*
X025578Y029858D01*
X025603Y029900D01*
X025631Y029939D01*
X025661Y029976D01*
X025695Y030010D01*
X025732Y030042D01*
X025770Y030071D01*
X025811Y030096D01*
X025854Y030118D01*
X025899Y030136D01*
X025945Y030150D01*
X025992Y030161D01*
X026040Y030168D01*
X026088Y030171D01*
X026136Y030170D01*
X026184Y030165D01*
X026232Y030156D01*
X026278Y030144D01*
X026323Y030127D01*
X026367Y030107D01*
X026409Y030084D01*
X026449Y030057D01*
X026487Y030027D01*
X026522Y029994D01*
X026554Y029958D01*
X026584Y029920D01*
X026610Y029879D01*
X026632Y029836D01*
X026652Y029792D01*
X026667Y029747D01*
X026679Y029700D01*
X026687Y029652D01*
X026691Y029604D01*
X026691Y029556D01*
X026687Y029508D01*
X026679Y029460D01*
X026667Y029413D01*
X026652Y029368D01*
X026632Y029324D01*
X026610Y029281D01*
X026584Y029240D01*
X026554Y029202D01*
X026522Y029166D01*
X026487Y029133D01*
X026449Y029103D01*
X026409Y029076D01*
X026367Y029053D01*
X026323Y029033D01*
X026278Y029016D01*
X026232Y029004D01*
X026184Y028995D01*
X026136Y028990D01*
X026088Y028989D01*
X026040Y028992D01*
X025992Y028999D01*
X025945Y029010D01*
X025899Y029024D01*
X025854Y029042D01*
X025811Y029064D01*
X025770Y029089D01*
X025732Y029118D01*
X025695Y029150D01*
X025661Y029184D01*
X025631Y029221D01*
X025603Y029260D01*
X025578Y029302D01*
X025558Y029346D01*
X025540Y029391D01*
X025527Y029437D01*
X025517Y029484D01*
X025511Y029532D01*
X025509Y029580D01*
D11*
X000850Y000130D02*
X000650Y000130D01*
X000650Y000330D01*
X000650Y000830D02*
X000650Y001030D01*
X000850Y001030D01*
X001350Y001030D02*
X001550Y001030D01*
X001550Y000830D01*
X001550Y000330D02*
X001550Y000130D01*
X001350Y000130D01*
X000750Y004080D02*
X000752Y004153D01*
X000758Y004226D01*
X000768Y004298D01*
X000782Y004370D01*
X000799Y004441D01*
X000821Y004511D01*
X000846Y004580D01*
X000875Y004647D01*
X000907Y004712D01*
X000943Y004776D01*
X000983Y004838D01*
X001025Y004897D01*
X001071Y004954D01*
X001120Y005008D01*
X001172Y005060D01*
X001226Y005109D01*
X001283Y005155D01*
X001342Y005197D01*
X001404Y005237D01*
X001468Y005273D01*
X001533Y005305D01*
X001600Y005334D01*
X001669Y005359D01*
X001739Y005381D01*
X001810Y005398D01*
X001882Y005412D01*
X001954Y005422D01*
X002027Y005428D01*
X002100Y005430D01*
X002173Y005428D01*
X002246Y005422D01*
X002318Y005412D01*
X002390Y005398D01*
X002461Y005381D01*
X002531Y005359D01*
X002600Y005334D01*
X002667Y005305D01*
X002732Y005273D01*
X002796Y005237D01*
X002858Y005197D01*
X002917Y005155D01*
X002974Y005109D01*
X003028Y005060D01*
X003080Y005008D01*
X003129Y004954D01*
X003175Y004897D01*
X003217Y004838D01*
X003257Y004776D01*
X003293Y004712D01*
X003325Y004647D01*
X003354Y004580D01*
X003379Y004511D01*
X003401Y004441D01*
X003418Y004370D01*
X003432Y004298D01*
X003442Y004226D01*
X003448Y004153D01*
X003450Y004080D01*
X003448Y004007D01*
X003442Y003934D01*
X003432Y003862D01*
X003418Y003790D01*
X003401Y003719D01*
X003379Y003649D01*
X003354Y003580D01*
X003325Y003513D01*
X003293Y003448D01*
X003257Y003384D01*
X003217Y003322D01*
X003175Y003263D01*
X003129Y003206D01*
X003080Y003152D01*
X003028Y003100D01*
X002974Y003051D01*
X002917Y003005D01*
X002858Y002963D01*
X002796Y002923D01*
X002732Y002887D01*
X002667Y002855D01*
X002600Y002826D01*
X002531Y002801D01*
X002461Y002779D01*
X002390Y002762D01*
X002318Y002748D01*
X002246Y002738D01*
X002173Y002732D01*
X002100Y002730D01*
X002027Y002732D01*
X001954Y002738D01*
X001882Y002748D01*
X001810Y002762D01*
X001739Y002779D01*
X001669Y002801D01*
X001600Y002826D01*
X001533Y002855D01*
X001468Y002887D01*
X001404Y002923D01*
X001342Y002963D01*
X001283Y003005D01*
X001226Y003051D01*
X001172Y003100D01*
X001120Y003152D01*
X001071Y003206D01*
X001025Y003263D01*
X000983Y003322D01*
X000943Y003384D01*
X000907Y003448D01*
X000875Y003513D01*
X000846Y003580D01*
X000821Y003649D01*
X000799Y003719D01*
X000782Y003790D01*
X000768Y003862D01*
X000758Y003934D01*
X000752Y004007D01*
X000750Y004080D01*
X003650Y010130D02*
X003850Y010130D01*
X003650Y010130D02*
X003650Y010330D01*
X003650Y010830D02*
X003650Y011030D01*
X003850Y011030D01*
X004350Y011030D02*
X004550Y011030D01*
X004550Y010830D01*
X004650Y010830D02*
X004650Y011030D01*
X004850Y011030D01*
X005350Y011030D02*
X005550Y011030D01*
X005550Y010830D01*
X005550Y010330D02*
X005550Y010130D01*
X005350Y010130D01*
X004850Y010130D02*
X004650Y010130D01*
X004650Y010330D01*
X004550Y010330D02*
X004550Y010130D01*
X004350Y010130D01*
X004350Y014130D02*
X004550Y014130D01*
X004550Y014330D01*
X004650Y014330D02*
X004650Y014130D01*
X004850Y014130D01*
X005350Y014130D02*
X005550Y014130D01*
X005550Y014330D01*
X005550Y014830D02*
X005550Y015030D01*
X005350Y015030D01*
X004850Y015030D02*
X004650Y015030D01*
X004650Y014830D01*
X004550Y014830D02*
X004550Y015030D01*
X004350Y015030D01*
X003850Y015030D02*
X003650Y015030D01*
X003650Y014830D01*
X003650Y014330D02*
X003650Y014130D01*
X003850Y014130D01*
X001570Y019610D02*
X000929Y019610D01*
X000929Y019930D01*
X001036Y020037D01*
X001463Y020037D01*
X001570Y019930D01*
X001570Y019610D01*
X001570Y020255D02*
X001570Y020468D01*
X001570Y020361D02*
X000929Y020361D01*
X000929Y020255D02*
X000929Y020468D01*
X000929Y020684D02*
X001036Y020684D01*
X001250Y020898D01*
X001570Y020898D01*
X001250Y020898D02*
X001036Y021111D01*
X000929Y021111D01*
X000929Y021329D02*
X000929Y021542D01*
X000929Y021436D02*
X001570Y021436D01*
X001570Y021542D02*
X001570Y021329D01*
X001463Y021758D02*
X001570Y021865D01*
X001570Y022079D01*
X001463Y022186D01*
X001036Y022186D01*
X000929Y022079D01*
X000929Y021865D01*
X001036Y021758D01*
X001463Y021758D01*
X000929Y022403D02*
X000929Y022830D01*
X000929Y022617D02*
X001570Y022617D01*
X001250Y023692D02*
X001250Y024119D01*
X001250Y024981D02*
X001250Y025302D01*
X001356Y025408D01*
X001463Y025408D01*
X001570Y025302D01*
X001570Y024981D01*
X000929Y024981D01*
X000929Y025302D01*
X001036Y025408D01*
X001143Y025408D01*
X001250Y025302D01*
X001250Y025626D02*
X001463Y025626D01*
X001570Y025733D01*
X001570Y025946D01*
X001463Y026053D01*
X001250Y026053D01*
X001143Y025946D01*
X001143Y025733D01*
X001250Y025626D01*
X001463Y026270D02*
X001356Y026377D01*
X001356Y026697D01*
X001250Y026697D02*
X001570Y026697D01*
X001570Y026377D01*
X001463Y026270D01*
X001143Y026377D02*
X001143Y026591D01*
X001250Y026697D01*
X001356Y026915D02*
X001143Y027128D01*
X001143Y027235D01*
X001250Y027452D02*
X001143Y027559D01*
X001143Y027879D01*
X000929Y027879D02*
X001570Y027879D01*
X001570Y027559D01*
X001463Y027452D01*
X001250Y027452D01*
X001143Y026915D02*
X001570Y026915D01*
X001570Y028741D02*
X000929Y028741D01*
X000929Y029061D01*
X001036Y029168D01*
X001250Y029168D01*
X001356Y029061D01*
X001356Y028741D01*
X000750Y029580D02*
X000752Y029653D01*
X000758Y029726D01*
X000768Y029798D01*
X000782Y029870D01*
X000799Y029941D01*
X000821Y030011D01*
X000846Y030080D01*
X000875Y030147D01*
X000907Y030212D01*
X000943Y030276D01*
X000983Y030338D01*
X001025Y030397D01*
X001071Y030454D01*
X001120Y030508D01*
X001172Y030560D01*
X001226Y030609D01*
X001283Y030655D01*
X001342Y030697D01*
X001404Y030737D01*
X001468Y030773D01*
X001533Y030805D01*
X001600Y030834D01*
X001669Y030859D01*
X001739Y030881D01*
X001810Y030898D01*
X001882Y030912D01*
X001954Y030922D01*
X002027Y030928D01*
X002100Y030930D01*
X002173Y030928D01*
X002246Y030922D01*
X002318Y030912D01*
X002390Y030898D01*
X002461Y030881D01*
X002531Y030859D01*
X002600Y030834D01*
X002667Y030805D01*
X002732Y030773D01*
X002796Y030737D01*
X002858Y030697D01*
X002917Y030655D01*
X002974Y030609D01*
X003028Y030560D01*
X003080Y030508D01*
X003129Y030454D01*
X003175Y030397D01*
X003217Y030338D01*
X003257Y030276D01*
X003293Y030212D01*
X003325Y030147D01*
X003354Y030080D01*
X003379Y030011D01*
X003401Y029941D01*
X003418Y029870D01*
X003432Y029798D01*
X003442Y029726D01*
X003448Y029653D01*
X003450Y029580D01*
X003448Y029507D01*
X003442Y029434D01*
X003432Y029362D01*
X003418Y029290D01*
X003401Y029219D01*
X003379Y029149D01*
X003354Y029080D01*
X003325Y029013D01*
X003293Y028948D01*
X003257Y028884D01*
X003217Y028822D01*
X003175Y028763D01*
X003129Y028706D01*
X003080Y028652D01*
X003028Y028600D01*
X002974Y028551D01*
X002917Y028505D01*
X002858Y028463D01*
X002796Y028423D01*
X002732Y028387D01*
X002667Y028355D01*
X002600Y028326D01*
X002531Y028301D01*
X002461Y028279D01*
X002390Y028262D01*
X002318Y028248D01*
X002246Y028238D01*
X002173Y028232D01*
X002100Y028230D01*
X002027Y028232D01*
X001954Y028238D01*
X001882Y028248D01*
X001810Y028262D01*
X001739Y028279D01*
X001669Y028301D01*
X001600Y028326D01*
X001533Y028355D01*
X001468Y028387D01*
X001404Y028423D01*
X001342Y028463D01*
X001283Y028505D01*
X001226Y028551D01*
X001172Y028600D01*
X001120Y028652D01*
X001071Y028706D01*
X001025Y028763D01*
X000983Y028822D01*
X000943Y028884D01*
X000907Y028948D01*
X000875Y029013D01*
X000846Y029080D01*
X000821Y029149D01*
X000799Y029219D01*
X000782Y029290D01*
X000768Y029362D01*
X000758Y029434D01*
X000752Y029507D01*
X000750Y029580D01*
X010630Y030217D02*
X010737Y030110D01*
X010950Y030110D01*
X011057Y030217D01*
X011275Y030110D02*
X011702Y030110D01*
X011919Y030110D02*
X011919Y030751D01*
X012026Y030430D02*
X012346Y030110D01*
X011919Y030324D02*
X012346Y030751D01*
X013130Y030751D02*
X013130Y030110D01*
X013450Y030110D01*
X013557Y030217D01*
X013557Y030644D01*
X013450Y030751D01*
X013130Y030751D01*
X013775Y030751D02*
X014202Y030751D01*
X013988Y030751D02*
X013988Y030110D01*
X014050Y029530D02*
X013850Y029530D01*
X014050Y029530D02*
X014050Y029330D01*
X014050Y028830D02*
X014050Y028630D01*
X013850Y028630D01*
X013350Y028630D02*
X013150Y028630D01*
X013150Y028830D01*
X013050Y028830D02*
X013050Y028630D01*
X012850Y028630D01*
X012350Y028630D02*
X012150Y028630D01*
X012150Y028830D01*
X012150Y029330D02*
X012150Y029530D01*
X012350Y029530D01*
X012850Y029530D02*
X013050Y029530D01*
X013050Y029330D01*
X013150Y029330D02*
X013150Y029530D01*
X013350Y029530D01*
X015150Y029530D02*
X015150Y029330D01*
X015150Y029530D02*
X015350Y029530D01*
X015850Y029530D02*
X016050Y029530D01*
X016050Y029330D01*
X016150Y029330D02*
X016150Y029530D01*
X016350Y029530D01*
X016850Y029530D02*
X017050Y029530D01*
X017050Y029330D01*
X017050Y028830D02*
X017050Y028630D01*
X016850Y028630D01*
X016350Y028630D02*
X016150Y028630D01*
X016150Y028830D01*
X016050Y028830D02*
X016050Y028630D01*
X015850Y028630D01*
X015350Y028630D02*
X015150Y028630D01*
X015150Y028830D01*
X015844Y030110D02*
X015630Y030324D01*
X015630Y030751D01*
X016057Y030751D02*
X016057Y030324D01*
X015844Y030110D01*
X016630Y030217D02*
X016737Y030110D01*
X016950Y030110D01*
X017057Y030217D01*
X017057Y030430D01*
X016844Y030430D01*
X017057Y030644D02*
X016950Y030751D01*
X016737Y030751D01*
X016630Y030644D01*
X016630Y030217D01*
X019700Y025080D02*
X020500Y025080D01*
X020600Y024980D01*
X020700Y025080D01*
X021500Y025080D01*
X021600Y024980D01*
X021700Y025080D01*
X022500Y025080D01*
X022600Y024980D01*
X022600Y024180D01*
X022500Y024080D01*
X021700Y024080D01*
X021600Y024180D01*
X021500Y024080D01*
X020700Y024080D01*
X020600Y024180D01*
X020500Y024080D01*
X019700Y024080D01*
X019600Y024180D01*
X019600Y024980D01*
X019700Y025080D01*
X021150Y020530D02*
X021150Y020330D01*
X021150Y020530D02*
X021350Y020530D01*
X021850Y020530D02*
X022050Y020530D01*
X022050Y020330D01*
X022050Y019830D02*
X022050Y019630D01*
X021850Y019630D01*
X021850Y019530D02*
X022050Y019530D01*
X022050Y019330D01*
X022050Y018830D02*
X022050Y018630D01*
X021850Y018630D01*
X021850Y018530D02*
X022050Y018530D01*
X022050Y018330D01*
X022050Y017830D02*
X022050Y017630D01*
X021850Y017630D01*
X021350Y017630D02*
X021150Y017630D01*
X021150Y017830D01*
X021150Y018330D02*
X021150Y018530D01*
X021350Y018530D01*
X021350Y018630D02*
X021150Y018630D01*
X021150Y018830D01*
X021150Y019330D02*
X021150Y019530D01*
X021350Y019530D01*
X021350Y019630D02*
X021150Y019630D01*
X021150Y019830D01*
X021150Y015030D02*
X021150Y014830D01*
X021150Y015030D02*
X021350Y015030D01*
X021850Y015030D02*
X022050Y015030D01*
X022050Y014830D01*
X022150Y014830D02*
X022150Y015030D01*
X022350Y015030D01*
X022850Y015030D02*
X023050Y015030D01*
X023050Y014830D01*
X023050Y014330D02*
X023050Y014130D01*
X022850Y014130D01*
X022350Y014130D02*
X022150Y014130D01*
X022150Y014330D01*
X022050Y014330D02*
X022050Y014130D01*
X021850Y014130D01*
X021350Y014130D02*
X021150Y014130D01*
X021150Y014330D01*
X021150Y011030D02*
X021150Y010830D01*
X021150Y011030D02*
X021350Y011030D01*
X021850Y011030D02*
X022050Y011030D01*
X022050Y010830D01*
X022150Y010830D02*
X022150Y011030D01*
X022350Y011030D01*
X022850Y011030D02*
X023050Y011030D01*
X023050Y010830D01*
X023050Y010330D02*
X023050Y010130D01*
X022850Y010130D01*
X022350Y010130D02*
X022150Y010130D01*
X022150Y010330D01*
X022050Y010330D02*
X022050Y010130D01*
X021850Y010130D01*
X021350Y010130D02*
X021150Y010130D01*
X021150Y010330D01*
X024250Y004080D02*
X024252Y004153D01*
X024258Y004226D01*
X024268Y004298D01*
X024282Y004370D01*
X024299Y004441D01*
X024321Y004511D01*
X024346Y004580D01*
X024375Y004647D01*
X024407Y004712D01*
X024443Y004776D01*
X024483Y004838D01*
X024525Y004897D01*
X024571Y004954D01*
X024620Y005008D01*
X024672Y005060D01*
X024726Y005109D01*
X024783Y005155D01*
X024842Y005197D01*
X024904Y005237D01*
X024968Y005273D01*
X025033Y005305D01*
X025100Y005334D01*
X025169Y005359D01*
X025239Y005381D01*
X025310Y005398D01*
X025382Y005412D01*
X025454Y005422D01*
X025527Y005428D01*
X025600Y005430D01*
X025673Y005428D01*
X025746Y005422D01*
X025818Y005412D01*
X025890Y005398D01*
X025961Y005381D01*
X026031Y005359D01*
X026100Y005334D01*
X026167Y005305D01*
X026232Y005273D01*
X026296Y005237D01*
X026358Y005197D01*
X026417Y005155D01*
X026474Y005109D01*
X026528Y005060D01*
X026580Y005008D01*
X026629Y004954D01*
X026675Y004897D01*
X026717Y004838D01*
X026757Y004776D01*
X026793Y004712D01*
X026825Y004647D01*
X026854Y004580D01*
X026879Y004511D01*
X026901Y004441D01*
X026918Y004370D01*
X026932Y004298D01*
X026942Y004226D01*
X026948Y004153D01*
X026950Y004080D01*
X026948Y004007D01*
X026942Y003934D01*
X026932Y003862D01*
X026918Y003790D01*
X026901Y003719D01*
X026879Y003649D01*
X026854Y003580D01*
X026825Y003513D01*
X026793Y003448D01*
X026757Y003384D01*
X026717Y003322D01*
X026675Y003263D01*
X026629Y003206D01*
X026580Y003152D01*
X026528Y003100D01*
X026474Y003051D01*
X026417Y003005D01*
X026358Y002963D01*
X026296Y002923D01*
X026232Y002887D01*
X026167Y002855D01*
X026100Y002826D01*
X026031Y002801D01*
X025961Y002779D01*
X025890Y002762D01*
X025818Y002748D01*
X025746Y002738D01*
X025673Y002732D01*
X025600Y002730D01*
X025527Y002732D01*
X025454Y002738D01*
X025382Y002748D01*
X025310Y002762D01*
X025239Y002779D01*
X025169Y002801D01*
X025100Y002826D01*
X025033Y002855D01*
X024968Y002887D01*
X024904Y002923D01*
X024842Y002963D01*
X024783Y003005D01*
X024726Y003051D01*
X024672Y003100D01*
X024620Y003152D01*
X024571Y003206D01*
X024525Y003263D01*
X024483Y003322D01*
X024443Y003384D01*
X024407Y003448D01*
X024375Y003513D01*
X024346Y003580D01*
X024321Y003649D01*
X024299Y003719D01*
X024282Y003790D01*
X024268Y003862D01*
X024258Y003934D01*
X024252Y004007D01*
X024250Y004080D01*
X024750Y029580D02*
X024752Y029653D01*
X024758Y029726D01*
X024768Y029798D01*
X024782Y029870D01*
X024799Y029941D01*
X024821Y030011D01*
X024846Y030080D01*
X024875Y030147D01*
X024907Y030212D01*
X024943Y030276D01*
X024983Y030338D01*
X025025Y030397D01*
X025071Y030454D01*
X025120Y030508D01*
X025172Y030560D01*
X025226Y030609D01*
X025283Y030655D01*
X025342Y030697D01*
X025404Y030737D01*
X025468Y030773D01*
X025533Y030805D01*
X025600Y030834D01*
X025669Y030859D01*
X025739Y030881D01*
X025810Y030898D01*
X025882Y030912D01*
X025954Y030922D01*
X026027Y030928D01*
X026100Y030930D01*
X026173Y030928D01*
X026246Y030922D01*
X026318Y030912D01*
X026390Y030898D01*
X026461Y030881D01*
X026531Y030859D01*
X026600Y030834D01*
X026667Y030805D01*
X026732Y030773D01*
X026796Y030737D01*
X026858Y030697D01*
X026917Y030655D01*
X026974Y030609D01*
X027028Y030560D01*
X027080Y030508D01*
X027129Y030454D01*
X027175Y030397D01*
X027217Y030338D01*
X027257Y030276D01*
X027293Y030212D01*
X027325Y030147D01*
X027354Y030080D01*
X027379Y030011D01*
X027401Y029941D01*
X027418Y029870D01*
X027432Y029798D01*
X027442Y029726D01*
X027448Y029653D01*
X027450Y029580D01*
X027448Y029507D01*
X027442Y029434D01*
X027432Y029362D01*
X027418Y029290D01*
X027401Y029219D01*
X027379Y029149D01*
X027354Y029080D01*
X027325Y029013D01*
X027293Y028948D01*
X027257Y028884D01*
X027217Y028822D01*
X027175Y028763D01*
X027129Y028706D01*
X027080Y028652D01*
X027028Y028600D01*
X026974Y028551D01*
X026917Y028505D01*
X026858Y028463D01*
X026796Y028423D01*
X026732Y028387D01*
X026667Y028355D01*
X026600Y028326D01*
X026531Y028301D01*
X026461Y028279D01*
X026390Y028262D01*
X026318Y028248D01*
X026246Y028238D01*
X026173Y028232D01*
X026100Y028230D01*
X026027Y028232D01*
X025954Y028238D01*
X025882Y028248D01*
X025810Y028262D01*
X025739Y028279D01*
X025669Y028301D01*
X025600Y028326D01*
X025533Y028355D01*
X025468Y028387D01*
X025404Y028423D01*
X025342Y028463D01*
X025283Y028505D01*
X025226Y028551D01*
X025172Y028600D01*
X025120Y028652D01*
X025071Y028706D01*
X025025Y028763D01*
X024983Y028822D01*
X024943Y028884D01*
X024907Y028948D01*
X024875Y029013D01*
X024846Y029080D01*
X024821Y029149D01*
X024799Y029219D01*
X024782Y029290D01*
X024768Y029362D01*
X024758Y029434D01*
X024752Y029507D01*
X024750Y029580D01*
X011275Y030110D02*
X011275Y030751D01*
X011057Y030644D02*
X010950Y030751D01*
X010737Y030751D01*
X010630Y030644D01*
X010630Y030217D01*
D12*
X012171Y024895D02*
X012525Y024895D01*
X012525Y023438D01*
X012919Y023438D01*
X012919Y024856D01*
X013391Y024856D01*
X013391Y023438D01*
X013864Y023438D01*
X013864Y024856D01*
X014297Y024856D01*
X014297Y023478D01*
X014730Y023478D01*
X014730Y024856D01*
X016305Y024856D01*
X014730Y022690D02*
X012171Y022690D01*
X012171Y022926D01*
X012171Y022966D02*
X012171Y024895D01*
D13*
X012545Y021144D02*
X012545Y020624D01*
X012892Y020624D01*
X013061Y020710D02*
X013148Y020624D01*
X013321Y020624D01*
X013408Y020710D01*
X013408Y020797D01*
X013321Y020884D01*
X013148Y020884D01*
X013061Y020971D01*
X013061Y021057D01*
X013148Y021144D01*
X013321Y021144D01*
X013408Y021057D01*
X013576Y021144D02*
X013576Y020624D01*
X013576Y020797D02*
X013837Y020797D01*
X013923Y020884D01*
X013923Y021057D01*
X013837Y021144D01*
X013576Y021144D01*
X012892Y021144D02*
X012545Y021144D01*
X012545Y020884D02*
X012719Y020884D01*
X014608Y020884D02*
X014955Y020884D01*
X015639Y020971D02*
X015813Y021144D01*
X015813Y020624D01*
X015986Y020624D02*
X015639Y020624D01*
X016155Y020624D02*
X016502Y020971D01*
X016502Y021057D01*
X016415Y021144D01*
X016241Y021144D01*
X016155Y021057D01*
X016155Y020624D02*
X016502Y020624D01*
D14*
X020125Y023555D02*
X020352Y023555D01*
X020238Y023555D02*
X020238Y023895D01*
X020125Y023782D01*
X021125Y023839D02*
X021182Y023895D01*
X021295Y023895D01*
X021352Y023839D01*
X021352Y023782D01*
X021125Y023555D01*
X021352Y023555D01*
X022125Y023612D02*
X022182Y023555D01*
X022295Y023555D01*
X022352Y023612D01*
X022352Y023668D01*
X022295Y023725D01*
X022238Y023725D01*
X022295Y023725D02*
X022352Y023782D01*
X022352Y023839D01*
X022295Y023895D01*
X022182Y023895D01*
X022125Y023839D01*
X020486Y025255D02*
X020185Y025255D01*
X020336Y025255D02*
X020336Y025705D01*
X020185Y025555D01*
X020025Y025705D02*
X019875Y025705D01*
X019950Y025705D02*
X019950Y025330D01*
X019875Y025255D01*
X019800Y025255D01*
X019725Y025330D01*
X021175Y021105D02*
X021475Y021105D01*
X021325Y021105D02*
X021325Y020655D01*
X021635Y020655D02*
X021936Y021105D01*
X021635Y021105D02*
X021936Y020655D01*
X003509Y001605D02*
X003584Y001530D01*
X003584Y001455D01*
X003284Y001155D01*
X003584Y001155D01*
X003124Y001155D02*
X002823Y001155D01*
X002823Y001605D01*
X002663Y001455D02*
X002663Y001155D01*
X002663Y001380D02*
X002363Y001380D01*
X002363Y001455D02*
X002513Y001605D01*
X002663Y001455D01*
X002363Y001455D02*
X002363Y001155D01*
X002203Y001155D02*
X002203Y001605D01*
X001903Y001605D02*
X002203Y001155D01*
X001903Y001155D02*
X001903Y001605D01*
X001743Y001530D02*
X001668Y001605D01*
X001517Y001605D01*
X001442Y001530D01*
X001442Y001230D01*
X001517Y001155D01*
X001668Y001155D01*
X001743Y001230D01*
X001743Y001380D01*
X001592Y001380D01*
X001286Y001155D02*
X001135Y001155D01*
X001210Y001155D02*
X001210Y001605D01*
X001135Y001605D02*
X001286Y001605D01*
X000975Y001530D02*
X000900Y001605D01*
X000750Y001605D01*
X000675Y001530D01*
X000675Y001455D01*
X000750Y001380D01*
X000900Y001380D01*
X000975Y001305D01*
X000975Y001230D01*
X000900Y001155D01*
X000750Y001155D01*
X000675Y001230D01*
X003284Y001530D02*
X003359Y001605D01*
X003509Y001605D01*
D15*
X001470Y004080D02*
X001472Y004130D01*
X001478Y004180D01*
X001488Y004229D01*
X001502Y004277D01*
X001519Y004324D01*
X001540Y004369D01*
X001565Y004413D01*
X001593Y004454D01*
X001625Y004493D01*
X001659Y004530D01*
X001696Y004564D01*
X001736Y004594D01*
X001778Y004621D01*
X001822Y004645D01*
X001868Y004666D01*
X001915Y004682D01*
X001963Y004695D01*
X002013Y004704D01*
X002062Y004709D01*
X002113Y004710D01*
X002163Y004707D01*
X002212Y004700D01*
X002261Y004689D01*
X002309Y004674D01*
X002355Y004656D01*
X002400Y004634D01*
X002443Y004608D01*
X002484Y004579D01*
X002523Y004547D01*
X002559Y004512D01*
X002591Y004474D01*
X002621Y004434D01*
X002648Y004391D01*
X002671Y004347D01*
X002690Y004301D01*
X002706Y004253D01*
X002718Y004204D01*
X002726Y004155D01*
X002730Y004105D01*
X002730Y004055D01*
X002726Y004005D01*
X002718Y003956D01*
X002706Y003907D01*
X002690Y003859D01*
X002671Y003813D01*
X002648Y003769D01*
X002621Y003726D01*
X002591Y003686D01*
X002559Y003648D01*
X002523Y003613D01*
X002484Y003581D01*
X002443Y003552D01*
X002400Y003526D01*
X002355Y003504D01*
X002309Y003486D01*
X002261Y003471D01*
X002212Y003460D01*
X002163Y003453D01*
X002113Y003450D01*
X002062Y003451D01*
X002013Y003456D01*
X001963Y003465D01*
X001915Y003478D01*
X001868Y003494D01*
X001822Y003515D01*
X001778Y003539D01*
X001736Y003566D01*
X001696Y003596D01*
X001659Y003630D01*
X001625Y003667D01*
X001593Y003706D01*
X001565Y003747D01*
X001540Y003791D01*
X001519Y003836D01*
X001502Y003883D01*
X001488Y003931D01*
X001478Y003980D01*
X001472Y004030D01*
X001470Y004080D01*
X001470Y029580D02*
X001472Y029630D01*
X001478Y029680D01*
X001488Y029729D01*
X001502Y029777D01*
X001519Y029824D01*
X001540Y029869D01*
X001565Y029913D01*
X001593Y029954D01*
X001625Y029993D01*
X001659Y030030D01*
X001696Y030064D01*
X001736Y030094D01*
X001778Y030121D01*
X001822Y030145D01*
X001868Y030166D01*
X001915Y030182D01*
X001963Y030195D01*
X002013Y030204D01*
X002062Y030209D01*
X002113Y030210D01*
X002163Y030207D01*
X002212Y030200D01*
X002261Y030189D01*
X002309Y030174D01*
X002355Y030156D01*
X002400Y030134D01*
X002443Y030108D01*
X002484Y030079D01*
X002523Y030047D01*
X002559Y030012D01*
X002591Y029974D01*
X002621Y029934D01*
X002648Y029891D01*
X002671Y029847D01*
X002690Y029801D01*
X002706Y029753D01*
X002718Y029704D01*
X002726Y029655D01*
X002730Y029605D01*
X002730Y029555D01*
X002726Y029505D01*
X002718Y029456D01*
X002706Y029407D01*
X002690Y029359D01*
X002671Y029313D01*
X002648Y029269D01*
X002621Y029226D01*
X002591Y029186D01*
X002559Y029148D01*
X002523Y029113D01*
X002484Y029081D01*
X002443Y029052D01*
X002400Y029026D01*
X002355Y029004D01*
X002309Y028986D01*
X002261Y028971D01*
X002212Y028960D01*
X002163Y028953D01*
X002113Y028950D01*
X002062Y028951D01*
X002013Y028956D01*
X001963Y028965D01*
X001915Y028978D01*
X001868Y028994D01*
X001822Y029015D01*
X001778Y029039D01*
X001736Y029066D01*
X001696Y029096D01*
X001659Y029130D01*
X001625Y029167D01*
X001593Y029206D01*
X001565Y029247D01*
X001540Y029291D01*
X001519Y029336D01*
X001502Y029383D01*
X001488Y029431D01*
X001478Y029480D01*
X001472Y029530D01*
X001470Y029580D01*
X024970Y004080D02*
X024972Y004130D01*
X024978Y004180D01*
X024988Y004229D01*
X025002Y004277D01*
X025019Y004324D01*
X025040Y004369D01*
X025065Y004413D01*
X025093Y004454D01*
X025125Y004493D01*
X025159Y004530D01*
X025196Y004564D01*
X025236Y004594D01*
X025278Y004621D01*
X025322Y004645D01*
X025368Y004666D01*
X025415Y004682D01*
X025463Y004695D01*
X025513Y004704D01*
X025562Y004709D01*
X025613Y004710D01*
X025663Y004707D01*
X025712Y004700D01*
X025761Y004689D01*
X025809Y004674D01*
X025855Y004656D01*
X025900Y004634D01*
X025943Y004608D01*
X025984Y004579D01*
X026023Y004547D01*
X026059Y004512D01*
X026091Y004474D01*
X026121Y004434D01*
X026148Y004391D01*
X026171Y004347D01*
X026190Y004301D01*
X026206Y004253D01*
X026218Y004204D01*
X026226Y004155D01*
X026230Y004105D01*
X026230Y004055D01*
X026226Y004005D01*
X026218Y003956D01*
X026206Y003907D01*
X026190Y003859D01*
X026171Y003813D01*
X026148Y003769D01*
X026121Y003726D01*
X026091Y003686D01*
X026059Y003648D01*
X026023Y003613D01*
X025984Y003581D01*
X025943Y003552D01*
X025900Y003526D01*
X025855Y003504D01*
X025809Y003486D01*
X025761Y003471D01*
X025712Y003460D01*
X025663Y003453D01*
X025613Y003450D01*
X025562Y003451D01*
X025513Y003456D01*
X025463Y003465D01*
X025415Y003478D01*
X025368Y003494D01*
X025322Y003515D01*
X025278Y003539D01*
X025236Y003566D01*
X025196Y003596D01*
X025159Y003630D01*
X025125Y003667D01*
X025093Y003706D01*
X025065Y003747D01*
X025040Y003791D01*
X025019Y003836D01*
X025002Y003883D01*
X024988Y003931D01*
X024978Y003980D01*
X024972Y004030D01*
X024970Y004080D01*
X025470Y029580D02*
X025472Y029630D01*
X025478Y029680D01*
X025488Y029729D01*
X025502Y029777D01*
X025519Y029824D01*
X025540Y029869D01*
X025565Y029913D01*
X025593Y029954D01*
X025625Y029993D01*
X025659Y030030D01*
X025696Y030064D01*
X025736Y030094D01*
X025778Y030121D01*
X025822Y030145D01*
X025868Y030166D01*
X025915Y030182D01*
X025963Y030195D01*
X026013Y030204D01*
X026062Y030209D01*
X026113Y030210D01*
X026163Y030207D01*
X026212Y030200D01*
X026261Y030189D01*
X026309Y030174D01*
X026355Y030156D01*
X026400Y030134D01*
X026443Y030108D01*
X026484Y030079D01*
X026523Y030047D01*
X026559Y030012D01*
X026591Y029974D01*
X026621Y029934D01*
X026648Y029891D01*
X026671Y029847D01*
X026690Y029801D01*
X026706Y029753D01*
X026718Y029704D01*
X026726Y029655D01*
X026730Y029605D01*
X026730Y029555D01*
X026726Y029505D01*
X026718Y029456D01*
X026706Y029407D01*
X026690Y029359D01*
X026671Y029313D01*
X026648Y029269D01*
X026621Y029226D01*
X026591Y029186D01*
X026559Y029148D01*
X026523Y029113D01*
X026484Y029081D01*
X026443Y029052D01*
X026400Y029026D01*
X026355Y029004D01*
X026309Y028986D01*
X026261Y028971D01*
X026212Y028960D01*
X026163Y028953D01*
X026113Y028950D01*
X026062Y028951D01*
X026013Y028956D01*
X025963Y028965D01*
X025915Y028978D01*
X025868Y028994D01*
X025822Y029015D01*
X025778Y029039D01*
X025736Y029066D01*
X025696Y029096D01*
X025659Y029130D01*
X025625Y029167D01*
X025593Y029206D01*
X025565Y029247D01*
X025540Y029291D01*
X025519Y029336D01*
X025502Y029383D01*
X025488Y029431D01*
X025478Y029480D01*
X025472Y029530D01*
X025470Y029580D01*
M02*
