G75*
%MOIN*%
%OFA0B0*%
%FSLAX24Y24*%
%IPPOS*%
%LPD*%
%AMOC8*
5,1,8,0,0,1.08239X$1,22.5*
%
%ADD10C,0.0556*%
%ADD11OC8,0.0930*%
%ADD12C,0.0640*%
%ADD13C,0.1261*%
%ADD14R,0.0476X0.0476*%
D10*
X010829Y016352D02*
X011305Y016352D01*
X011305Y017139D02*
X010829Y017139D01*
X010829Y017926D02*
X011305Y017926D01*
X011305Y018714D02*
X010829Y018714D01*
X010829Y019501D02*
X011305Y019501D01*
X011305Y020289D02*
X010829Y020289D01*
X010829Y021076D02*
X011305Y021076D01*
X011305Y021863D02*
X010829Y021863D01*
X016817Y021863D02*
X017292Y021863D01*
X017292Y021076D02*
X016817Y021076D01*
X016817Y020289D02*
X017292Y020289D01*
X017292Y019501D02*
X016817Y019501D01*
X016817Y018714D02*
X017292Y018714D01*
X017292Y017926D02*
X016817Y017926D01*
X016817Y017139D02*
X017292Y017139D01*
X017292Y016352D02*
X016817Y016352D01*
D11*
X001100Y000580D03*
X004100Y010580D03*
X005100Y010580D03*
X005100Y014580D03*
X004100Y014580D03*
X012600Y029080D03*
X013600Y029080D03*
X015600Y029080D03*
X016600Y029080D03*
X021600Y020080D03*
X021600Y019080D03*
X021600Y018080D03*
X021600Y014580D03*
X022600Y014580D03*
X022600Y010580D03*
X021600Y010580D03*
D12*
X021100Y024300D02*
X021100Y024860D01*
X022100Y024860D02*
X022100Y024300D01*
X020100Y024300D02*
X020100Y024860D01*
D13*
X026100Y029580D03*
X025600Y004080D03*
X002100Y004080D03*
X002100Y029580D03*
D14*
X017021Y019501D03*
M02*
