%
M48
M72
T01C0.0236
T02C0.0276
T03C0.0360
T04C0.0400
T05C0.1181
%
T01
X17021Y19501
T02
X16817Y19501
X16817Y18714
X16817Y17926
X16817Y17139
X16817Y16352
X16817Y20289
X16817Y21076
X16817Y21863
X11305Y21863
X11305Y21076
X11305Y20289
X11305Y19501
X11305Y18714
X11305Y17926
X11305Y17139
X11305Y16352
T03
X20100Y24580
X21100Y24580
X22100Y24580
T04
X1100Y580
X4100Y10580
X5100Y10580
X5100Y14580
X4100Y14580
X12600Y29080
X13600Y29080
X15600Y29080
X16600Y29080
X21600Y20080
X21600Y19080
X21600Y18080
X21600Y14580
X22600Y14580
X22600Y10580
X21600Y10580
T05
X25600Y4080
X26100Y29580
X2100Y29580
X2100Y4080
M30
