%
M48
M72
T01C0.0276
T02C0.0360
T03C0.0400
T04C0.1181
%
T01
X12305Y14372
X12305Y15159
X12305Y15946
X12305Y16734
X12305Y17521
X12305Y18309
X12305Y19096
X12305Y19883
X17817Y19883
X17817Y19096
X17817Y18309
X17817Y17521
X17817Y16734
X17817Y15946
X17817Y15159
X17817Y14372
T02
X21100Y22600
X22100Y22600
X23100Y22600
T03
X22600Y18100
X22600Y17100
X22600Y16100
X22600Y12600
X23600Y12600
X23600Y8600
X22600Y8600
X18100Y24100
X18100Y25100
X18100Y26100
X17100Y26100
X17100Y25100
X17100Y24100
X16100Y24100
X16100Y25100
X16100Y26100
X15100Y26100
X15100Y25100
X15100Y24100
X14100Y24100
X14100Y25100
X14100Y26100
X13100Y26100
X13100Y25100
X13100Y24100
X12100Y24100
X12100Y25100
X12100Y26100
X11100Y26100
X11100Y25100
X11100Y24100
X6100Y12600
X5100Y12600
X5100Y8600
X6100Y8600
T04
X2100Y2100
X26100Y2100
X26100Y27600
X2100Y27600
M30
