%
M48
M72
T01C0.0236
T02C0.0276
T03C0.0360
T04C0.0400
T05C0.1181
%
T01
X17021Y17521
T02
X16817Y17521
X16817Y18309
X16817Y19096
X16817Y19883
X16817Y16734
X16817Y15946
X16817Y15159
X16817Y14372
X11305Y14372
X11305Y15159
X11305Y15946
X11305Y16734
X11305Y17521
X11305Y18309
X11305Y19096
X11305Y19883
T03
X20100Y22600
X21100Y22600
X22100Y22600
T04
X21600Y18100
X21600Y17100
X21600Y16100
X21600Y12600
X22600Y12600
X22600Y8600
X21600Y8600
X5100Y8600
X4100Y8600
X4100Y12600
X5100Y12600
X13600Y27100
X14600Y27100
X15600Y27100
X16600Y27100
T05
X2100Y2100
X25600Y2100
X26100Y27600
X2100Y27600
M30
