G75*
%MOIN*%
%OFA0B0*%
%FSLAX24Y24*%
%IPPOS*%
%LPD*%
%AMOC8*
5,1,8,0,0,1.08239X$1,22.5*
%
%ADD10C,0.0476*%
%ADD11OC8,0.0850*%
%ADD12C,0.0560*%
%ADD13C,0.0160*%
%ADD14R,0.0396X0.0396*%
D10*
X010829Y014372D02*
X011305Y014372D01*
X011305Y015159D02*
X010829Y015159D01*
X010829Y015946D02*
X011305Y015946D01*
X011305Y016734D02*
X010829Y016734D01*
X010829Y017521D02*
X011305Y017521D01*
X011305Y018309D02*
X010829Y018309D01*
X010829Y019096D02*
X011305Y019096D01*
X011305Y019883D02*
X010829Y019883D01*
X016817Y019883D02*
X017292Y019883D01*
X017292Y019096D02*
X016817Y019096D01*
X016817Y018309D02*
X017292Y018309D01*
X017292Y017521D02*
X016817Y017521D01*
X016817Y016734D02*
X017292Y016734D01*
X017292Y015946D02*
X016817Y015946D01*
X016817Y015159D02*
X017292Y015159D01*
X017292Y014372D02*
X016817Y014372D01*
D11*
X004100Y008600D03*
X005100Y008600D03*
X005100Y012600D03*
X004100Y012600D03*
X011100Y028100D03*
X012100Y028100D03*
X013100Y028100D03*
X014100Y028100D03*
X015100Y028100D03*
X016100Y028100D03*
X017100Y028100D03*
X018100Y028100D03*
X021600Y018100D03*
X021600Y017100D03*
X021600Y016100D03*
X021600Y012600D03*
X022600Y012600D03*
X022600Y008600D03*
X021600Y008600D03*
D12*
X021100Y022320D02*
X021100Y022880D01*
X022100Y022880D02*
X022100Y022320D01*
X020100Y022320D02*
X020100Y022880D01*
D13*
X018600Y023600D02*
X018600Y016600D01*
X018100Y016100D01*
X016970Y016100D01*
X016817Y015946D01*
X011100Y016600D02*
X009100Y018600D01*
X009100Y023100D01*
X010100Y024600D01*
X011600Y024600D01*
X012600Y025100D01*
X015600Y025600D01*
X016100Y028100D01*
D14*
X018600Y023600D03*
M02*
