G75*
%MOIN*%
%OFA0B0*%
%FSLAX24Y24*%
%IPPOS*%
%LPD*%
%AMOC8*
5,1,8,0,0,1.08239X$1,22.5*
%
%ADD10C,0.0000*%
%ADD11C,0.0060*%
%ADD12C,0.0240*%
%ADD13C,0.0040*%
%ADD14C,0.0050*%
%ADD15C,0.0080*%
D10*
X000100Y000100D02*
X000100Y029596D01*
X027970Y029596D01*
X028100Y029596D02*
X028100Y000100D01*
X000100Y000100D01*
X001509Y002100D02*
X001511Y002148D01*
X001517Y002196D01*
X001527Y002243D01*
X001540Y002289D01*
X001558Y002334D01*
X001578Y002378D01*
X001603Y002420D01*
X001631Y002459D01*
X001661Y002496D01*
X001695Y002530D01*
X001732Y002562D01*
X001770Y002591D01*
X001811Y002616D01*
X001854Y002638D01*
X001899Y002656D01*
X001945Y002670D01*
X001992Y002681D01*
X002040Y002688D01*
X002088Y002691D01*
X002136Y002690D01*
X002184Y002685D01*
X002232Y002676D01*
X002278Y002664D01*
X002323Y002647D01*
X002367Y002627D01*
X002409Y002604D01*
X002449Y002577D01*
X002487Y002547D01*
X002522Y002514D01*
X002554Y002478D01*
X002584Y002440D01*
X002610Y002399D01*
X002632Y002356D01*
X002652Y002312D01*
X002667Y002267D01*
X002679Y002220D01*
X002687Y002172D01*
X002691Y002124D01*
X002691Y002076D01*
X002687Y002028D01*
X002679Y001980D01*
X002667Y001933D01*
X002652Y001888D01*
X002632Y001844D01*
X002610Y001801D01*
X002584Y001760D01*
X002554Y001722D01*
X002522Y001686D01*
X002487Y001653D01*
X002449Y001623D01*
X002409Y001596D01*
X002367Y001573D01*
X002323Y001553D01*
X002278Y001536D01*
X002232Y001524D01*
X002184Y001515D01*
X002136Y001510D01*
X002088Y001509D01*
X002040Y001512D01*
X001992Y001519D01*
X001945Y001530D01*
X001899Y001544D01*
X001854Y001562D01*
X001811Y001584D01*
X001770Y001609D01*
X001732Y001638D01*
X001695Y001670D01*
X001661Y001704D01*
X001631Y001741D01*
X001603Y001780D01*
X001578Y001822D01*
X001558Y001866D01*
X001540Y001911D01*
X001527Y001957D01*
X001517Y002004D01*
X001511Y002052D01*
X001509Y002100D01*
X001509Y027600D02*
X001511Y027648D01*
X001517Y027696D01*
X001527Y027743D01*
X001540Y027789D01*
X001558Y027834D01*
X001578Y027878D01*
X001603Y027920D01*
X001631Y027959D01*
X001661Y027996D01*
X001695Y028030D01*
X001732Y028062D01*
X001770Y028091D01*
X001811Y028116D01*
X001854Y028138D01*
X001899Y028156D01*
X001945Y028170D01*
X001992Y028181D01*
X002040Y028188D01*
X002088Y028191D01*
X002136Y028190D01*
X002184Y028185D01*
X002232Y028176D01*
X002278Y028164D01*
X002323Y028147D01*
X002367Y028127D01*
X002409Y028104D01*
X002449Y028077D01*
X002487Y028047D01*
X002522Y028014D01*
X002554Y027978D01*
X002584Y027940D01*
X002610Y027899D01*
X002632Y027856D01*
X002652Y027812D01*
X002667Y027767D01*
X002679Y027720D01*
X002687Y027672D01*
X002691Y027624D01*
X002691Y027576D01*
X002687Y027528D01*
X002679Y027480D01*
X002667Y027433D01*
X002652Y027388D01*
X002632Y027344D01*
X002610Y027301D01*
X002584Y027260D01*
X002554Y027222D01*
X002522Y027186D01*
X002487Y027153D01*
X002449Y027123D01*
X002409Y027096D01*
X002367Y027073D01*
X002323Y027053D01*
X002278Y027036D01*
X002232Y027024D01*
X002184Y027015D01*
X002136Y027010D01*
X002088Y027009D01*
X002040Y027012D01*
X001992Y027019D01*
X001945Y027030D01*
X001899Y027044D01*
X001854Y027062D01*
X001811Y027084D01*
X001770Y027109D01*
X001732Y027138D01*
X001695Y027170D01*
X001661Y027204D01*
X001631Y027241D01*
X001603Y027280D01*
X001578Y027322D01*
X001558Y027366D01*
X001540Y027411D01*
X001527Y027457D01*
X001517Y027504D01*
X001511Y027552D01*
X001509Y027600D01*
X025509Y027600D02*
X025511Y027648D01*
X025517Y027696D01*
X025527Y027743D01*
X025540Y027789D01*
X025558Y027834D01*
X025578Y027878D01*
X025603Y027920D01*
X025631Y027959D01*
X025661Y027996D01*
X025695Y028030D01*
X025732Y028062D01*
X025770Y028091D01*
X025811Y028116D01*
X025854Y028138D01*
X025899Y028156D01*
X025945Y028170D01*
X025992Y028181D01*
X026040Y028188D01*
X026088Y028191D01*
X026136Y028190D01*
X026184Y028185D01*
X026232Y028176D01*
X026278Y028164D01*
X026323Y028147D01*
X026367Y028127D01*
X026409Y028104D01*
X026449Y028077D01*
X026487Y028047D01*
X026522Y028014D01*
X026554Y027978D01*
X026584Y027940D01*
X026610Y027899D01*
X026632Y027856D01*
X026652Y027812D01*
X026667Y027767D01*
X026679Y027720D01*
X026687Y027672D01*
X026691Y027624D01*
X026691Y027576D01*
X026687Y027528D01*
X026679Y027480D01*
X026667Y027433D01*
X026652Y027388D01*
X026632Y027344D01*
X026610Y027301D01*
X026584Y027260D01*
X026554Y027222D01*
X026522Y027186D01*
X026487Y027153D01*
X026449Y027123D01*
X026409Y027096D01*
X026367Y027073D01*
X026323Y027053D01*
X026278Y027036D01*
X026232Y027024D01*
X026184Y027015D01*
X026136Y027010D01*
X026088Y027009D01*
X026040Y027012D01*
X025992Y027019D01*
X025945Y027030D01*
X025899Y027044D01*
X025854Y027062D01*
X025811Y027084D01*
X025770Y027109D01*
X025732Y027138D01*
X025695Y027170D01*
X025661Y027204D01*
X025631Y027241D01*
X025603Y027280D01*
X025578Y027322D01*
X025558Y027366D01*
X025540Y027411D01*
X025527Y027457D01*
X025517Y027504D01*
X025511Y027552D01*
X025509Y027600D01*
X025509Y002100D02*
X025511Y002148D01*
X025517Y002196D01*
X025527Y002243D01*
X025540Y002289D01*
X025558Y002334D01*
X025578Y002378D01*
X025603Y002420D01*
X025631Y002459D01*
X025661Y002496D01*
X025695Y002530D01*
X025732Y002562D01*
X025770Y002591D01*
X025811Y002616D01*
X025854Y002638D01*
X025899Y002656D01*
X025945Y002670D01*
X025992Y002681D01*
X026040Y002688D01*
X026088Y002691D01*
X026136Y002690D01*
X026184Y002685D01*
X026232Y002676D01*
X026278Y002664D01*
X026323Y002647D01*
X026367Y002627D01*
X026409Y002604D01*
X026449Y002577D01*
X026487Y002547D01*
X026522Y002514D01*
X026554Y002478D01*
X026584Y002440D01*
X026610Y002399D01*
X026632Y002356D01*
X026652Y002312D01*
X026667Y002267D01*
X026679Y002220D01*
X026687Y002172D01*
X026691Y002124D01*
X026691Y002076D01*
X026687Y002028D01*
X026679Y001980D01*
X026667Y001933D01*
X026652Y001888D01*
X026632Y001844D01*
X026610Y001801D01*
X026584Y001760D01*
X026554Y001722D01*
X026522Y001686D01*
X026487Y001653D01*
X026449Y001623D01*
X026409Y001596D01*
X026367Y001573D01*
X026323Y001553D01*
X026278Y001536D01*
X026232Y001524D01*
X026184Y001515D01*
X026136Y001510D01*
X026088Y001509D01*
X026040Y001512D01*
X025992Y001519D01*
X025945Y001530D01*
X025899Y001544D01*
X025854Y001562D01*
X025811Y001584D01*
X025770Y001609D01*
X025732Y001638D01*
X025695Y001670D01*
X025661Y001704D01*
X025631Y001741D01*
X025603Y001780D01*
X025578Y001822D01*
X025558Y001866D01*
X025540Y001911D01*
X025527Y001957D01*
X025517Y002004D01*
X025511Y002052D01*
X025509Y002100D01*
D11*
X024750Y002100D02*
X024752Y002173D01*
X024758Y002246D01*
X024768Y002318D01*
X024782Y002390D01*
X024799Y002461D01*
X024821Y002531D01*
X024846Y002600D01*
X024875Y002667D01*
X024907Y002732D01*
X024943Y002796D01*
X024983Y002858D01*
X025025Y002917D01*
X025071Y002974D01*
X025120Y003028D01*
X025172Y003080D01*
X025226Y003129D01*
X025283Y003175D01*
X025342Y003217D01*
X025404Y003257D01*
X025468Y003293D01*
X025533Y003325D01*
X025600Y003354D01*
X025669Y003379D01*
X025739Y003401D01*
X025810Y003418D01*
X025882Y003432D01*
X025954Y003442D01*
X026027Y003448D01*
X026100Y003450D01*
X026173Y003448D01*
X026246Y003442D01*
X026318Y003432D01*
X026390Y003418D01*
X026461Y003401D01*
X026531Y003379D01*
X026600Y003354D01*
X026667Y003325D01*
X026732Y003293D01*
X026796Y003257D01*
X026858Y003217D01*
X026917Y003175D01*
X026974Y003129D01*
X027028Y003080D01*
X027080Y003028D01*
X027129Y002974D01*
X027175Y002917D01*
X027217Y002858D01*
X027257Y002796D01*
X027293Y002732D01*
X027325Y002667D01*
X027354Y002600D01*
X027379Y002531D01*
X027401Y002461D01*
X027418Y002390D01*
X027432Y002318D01*
X027442Y002246D01*
X027448Y002173D01*
X027450Y002100D01*
X027448Y002027D01*
X027442Y001954D01*
X027432Y001882D01*
X027418Y001810D01*
X027401Y001739D01*
X027379Y001669D01*
X027354Y001600D01*
X027325Y001533D01*
X027293Y001468D01*
X027257Y001404D01*
X027217Y001342D01*
X027175Y001283D01*
X027129Y001226D01*
X027080Y001172D01*
X027028Y001120D01*
X026974Y001071D01*
X026917Y001025D01*
X026858Y000983D01*
X026796Y000943D01*
X026732Y000907D01*
X026667Y000875D01*
X026600Y000846D01*
X026531Y000821D01*
X026461Y000799D01*
X026390Y000782D01*
X026318Y000768D01*
X026246Y000758D01*
X026173Y000752D01*
X026100Y000750D01*
X026027Y000752D01*
X025954Y000758D01*
X025882Y000768D01*
X025810Y000782D01*
X025739Y000799D01*
X025669Y000821D01*
X025600Y000846D01*
X025533Y000875D01*
X025468Y000907D01*
X025404Y000943D01*
X025342Y000983D01*
X025283Y001025D01*
X025226Y001071D01*
X025172Y001120D01*
X025120Y001172D01*
X025071Y001226D01*
X025025Y001283D01*
X024983Y001342D01*
X024943Y001404D01*
X024907Y001468D01*
X024875Y001533D01*
X024846Y001600D01*
X024821Y001669D01*
X024799Y001739D01*
X024782Y001810D01*
X024768Y001882D01*
X024758Y001954D01*
X024752Y002027D01*
X024750Y002100D01*
X024050Y008150D02*
X023850Y008150D01*
X024050Y008150D02*
X024050Y008350D01*
X024050Y008850D02*
X024050Y009050D01*
X023850Y009050D01*
X023350Y009050D02*
X023150Y009050D01*
X023150Y008850D01*
X023050Y008850D02*
X023050Y009050D01*
X022850Y009050D01*
X022350Y009050D02*
X022150Y009050D01*
X022150Y008850D01*
X022150Y008350D02*
X022150Y008150D01*
X022350Y008150D01*
X022850Y008150D02*
X023050Y008150D01*
X023050Y008350D01*
X023150Y008350D02*
X023150Y008150D01*
X023350Y008150D01*
X023350Y012150D02*
X023150Y012150D01*
X023150Y012350D01*
X023050Y012350D02*
X023050Y012150D01*
X022850Y012150D01*
X022350Y012150D02*
X022150Y012150D01*
X022150Y012350D01*
X022150Y012850D02*
X022150Y013050D01*
X022350Y013050D01*
X022850Y013050D02*
X023050Y013050D01*
X023050Y012850D01*
X023150Y012850D02*
X023150Y013050D01*
X023350Y013050D01*
X023850Y013050D02*
X024050Y013050D01*
X024050Y012850D01*
X024050Y012350D02*
X024050Y012150D01*
X023850Y012150D01*
X023050Y015650D02*
X022850Y015650D01*
X023050Y015650D02*
X023050Y015850D01*
X023050Y016350D02*
X023050Y016550D01*
X022850Y016550D01*
X022850Y016650D02*
X023050Y016650D01*
X023050Y016850D01*
X023050Y017350D02*
X023050Y017550D01*
X022850Y017550D01*
X022850Y017650D02*
X023050Y017650D01*
X023050Y017850D01*
X023050Y018350D02*
X023050Y018550D01*
X022850Y018550D01*
X022350Y018550D02*
X022150Y018550D01*
X022150Y018350D01*
X022150Y017850D02*
X022150Y017650D01*
X022350Y017650D01*
X022350Y017550D02*
X022150Y017550D01*
X022150Y017350D01*
X022150Y016850D02*
X022150Y016650D01*
X022350Y016650D01*
X022350Y016550D02*
X022150Y016550D01*
X022150Y016350D01*
X022150Y015850D02*
X022150Y015650D01*
X022350Y015650D01*
X022500Y022100D02*
X021700Y022100D01*
X021600Y022200D01*
X021500Y022100D01*
X020700Y022100D01*
X020600Y022200D01*
X020600Y023000D01*
X020700Y023100D01*
X021500Y023100D01*
X021600Y023000D01*
X021700Y023100D01*
X022500Y023100D01*
X022600Y023000D01*
X022700Y023100D01*
X023500Y023100D01*
X023600Y023000D01*
X023600Y022200D01*
X023500Y022100D01*
X022700Y022100D01*
X022600Y022200D01*
X022500Y022100D01*
X018550Y023650D02*
X018350Y023650D01*
X018550Y023650D02*
X018550Y023850D01*
X018550Y024350D02*
X018550Y024550D01*
X018350Y024550D01*
X018350Y024650D02*
X018550Y024650D01*
X018550Y024850D01*
X018550Y025350D02*
X018550Y025550D01*
X018350Y025550D01*
X018350Y025650D02*
X018550Y025650D01*
X018550Y025850D01*
X018550Y026350D02*
X018550Y026550D01*
X018350Y026550D01*
X018130Y026630D02*
X018130Y026737D01*
X018557Y027164D01*
X018557Y027271D01*
X018130Y027271D01*
X017557Y027271D02*
X017344Y027164D01*
X017130Y026950D01*
X017450Y026950D01*
X017557Y026844D01*
X017557Y026737D01*
X017450Y026630D01*
X017237Y026630D01*
X017130Y026737D01*
X017130Y026950D01*
X017350Y026550D02*
X017550Y026550D01*
X017550Y026350D01*
X017650Y026350D02*
X017650Y026550D01*
X017850Y026550D01*
X017650Y025850D02*
X017650Y025650D01*
X017850Y025650D01*
X017850Y025550D02*
X017650Y025550D01*
X017650Y025350D01*
X017550Y025350D02*
X017550Y025550D01*
X017350Y025550D01*
X017350Y025650D02*
X017550Y025650D01*
X017550Y025850D01*
X016850Y025650D02*
X016650Y025650D01*
X016650Y025850D01*
X016550Y025850D02*
X016550Y025650D01*
X016350Y025650D01*
X016350Y025550D02*
X016550Y025550D01*
X016550Y025350D01*
X016650Y025350D02*
X016650Y025550D01*
X016850Y025550D01*
X016650Y026350D02*
X016650Y026550D01*
X016850Y026550D01*
X016550Y026550D02*
X016550Y026350D01*
X016550Y026550D02*
X016350Y026550D01*
X016450Y026630D02*
X016237Y026630D01*
X016130Y026737D01*
X016130Y026950D02*
X016344Y027057D01*
X016450Y027057D01*
X016557Y026950D01*
X016557Y026737D01*
X016450Y026630D01*
X016130Y026950D02*
X016130Y027271D01*
X016557Y027271D01*
X015850Y026550D02*
X015650Y026550D01*
X015650Y026350D01*
X015550Y026350D02*
X015550Y026550D01*
X015350Y026550D01*
X015450Y026630D02*
X015450Y027271D01*
X015130Y026950D01*
X015557Y026950D01*
X014850Y026550D02*
X014650Y026550D01*
X014650Y026350D01*
X014550Y026350D02*
X014550Y026550D01*
X014350Y026550D01*
X014450Y026630D02*
X014237Y026630D01*
X014130Y026737D01*
X014344Y026950D02*
X014450Y026950D01*
X014557Y026844D01*
X014557Y026737D01*
X014450Y026630D01*
X014450Y026950D02*
X014557Y027057D01*
X014557Y027164D01*
X014450Y027271D01*
X014237Y027271D01*
X014130Y027164D01*
X013557Y027164D02*
X013450Y027271D01*
X013237Y027271D01*
X013130Y027164D01*
X013557Y027164D02*
X013557Y027057D01*
X013130Y026630D01*
X013557Y026630D01*
X013550Y026550D02*
X013350Y026550D01*
X013550Y026550D02*
X013550Y026350D01*
X013650Y026350D02*
X013650Y026550D01*
X013850Y026550D01*
X013650Y025850D02*
X013650Y025650D01*
X013850Y025650D01*
X013850Y025550D02*
X013650Y025550D01*
X013650Y025350D01*
X013550Y025350D02*
X013550Y025550D01*
X013350Y025550D01*
X013350Y025650D02*
X013550Y025650D01*
X013550Y025850D01*
X014350Y025650D02*
X014550Y025650D01*
X014550Y025850D01*
X014650Y025850D02*
X014650Y025650D01*
X014850Y025650D01*
X014850Y025550D02*
X014650Y025550D01*
X014650Y025350D01*
X014550Y025350D02*
X014550Y025550D01*
X014350Y025550D01*
X014550Y024850D02*
X014550Y024650D01*
X014350Y024650D01*
X014350Y024550D02*
X014550Y024550D01*
X014550Y024350D01*
X014650Y024350D02*
X014650Y024550D01*
X014850Y024550D01*
X014850Y024650D02*
X014650Y024650D01*
X014650Y024850D01*
X013850Y024650D02*
X013650Y024650D01*
X013650Y024850D01*
X013550Y024850D02*
X013550Y024650D01*
X013350Y024650D01*
X013350Y024550D02*
X013550Y024550D01*
X013550Y024350D01*
X013650Y024350D02*
X013650Y024550D01*
X013850Y024550D01*
X013650Y023850D02*
X013650Y023650D01*
X013850Y023650D01*
X013550Y023650D02*
X013550Y023850D01*
X013550Y023650D02*
X013350Y023650D01*
X012850Y023650D02*
X012650Y023650D01*
X012650Y023850D01*
X012550Y023850D02*
X012550Y023650D01*
X012350Y023650D01*
X011850Y023650D02*
X011650Y023650D01*
X011650Y023850D01*
X011550Y023850D02*
X011550Y023650D01*
X011350Y023650D01*
X010850Y023650D02*
X010650Y023650D01*
X010650Y023850D01*
X010650Y024350D02*
X010650Y024550D01*
X010850Y024550D01*
X010850Y024650D02*
X010650Y024650D01*
X010650Y024850D01*
X010650Y025350D02*
X010650Y025550D01*
X010850Y025550D01*
X010850Y025650D02*
X010650Y025650D01*
X010650Y025850D01*
X010650Y026350D02*
X010650Y026550D01*
X010850Y026550D01*
X011130Y026630D02*
X011130Y027057D01*
X011344Y027271D01*
X011557Y027057D01*
X011557Y026630D01*
X011550Y026550D02*
X011350Y026550D01*
X011550Y026550D02*
X011550Y026350D01*
X011650Y026350D02*
X011650Y026550D01*
X011850Y026550D01*
X012130Y026630D02*
X012557Y026630D01*
X012550Y026550D02*
X012350Y026550D01*
X012344Y026630D02*
X012344Y027271D01*
X012130Y027057D01*
X012550Y026550D02*
X012550Y026350D01*
X012650Y026350D02*
X012650Y026550D01*
X012850Y026550D01*
X012650Y025850D02*
X012650Y025650D01*
X012850Y025650D01*
X012850Y025550D02*
X012650Y025550D01*
X012650Y025350D01*
X012550Y025350D02*
X012550Y025550D01*
X012350Y025550D01*
X012350Y025650D02*
X012550Y025650D01*
X012550Y025850D01*
X011850Y025650D02*
X011650Y025650D01*
X011650Y025850D01*
X011550Y025850D02*
X011550Y025650D01*
X011350Y025650D01*
X011350Y025550D02*
X011550Y025550D01*
X011550Y025350D01*
X011650Y025350D02*
X011650Y025550D01*
X011850Y025550D01*
X011650Y024850D02*
X011650Y024650D01*
X011850Y024650D01*
X011850Y024550D02*
X011650Y024550D01*
X011650Y024350D01*
X011550Y024350D02*
X011550Y024550D01*
X011350Y024550D01*
X011350Y024650D02*
X011550Y024650D01*
X011550Y024850D01*
X012350Y024650D02*
X012550Y024650D01*
X012550Y024850D01*
X012650Y024850D02*
X012650Y024650D01*
X012850Y024650D01*
X012850Y024550D02*
X012650Y024550D01*
X012650Y024350D01*
X012550Y024350D02*
X012550Y024550D01*
X012350Y024550D01*
X014350Y023650D02*
X014550Y023650D01*
X014550Y023850D01*
X014650Y023850D02*
X014650Y023650D01*
X014850Y023650D01*
X015350Y023650D02*
X015550Y023650D01*
X015550Y023850D01*
X015650Y023850D02*
X015650Y023650D01*
X015850Y023650D01*
X016350Y023650D02*
X016550Y023650D01*
X016550Y023850D01*
X016650Y023850D02*
X016650Y023650D01*
X016850Y023650D01*
X017350Y023650D02*
X017550Y023650D01*
X017550Y023850D01*
X017650Y023850D02*
X017650Y023650D01*
X017850Y023650D01*
X017650Y024350D02*
X017650Y024550D01*
X017850Y024550D01*
X017850Y024650D02*
X017650Y024650D01*
X017650Y024850D01*
X017550Y024850D02*
X017550Y024650D01*
X017350Y024650D01*
X017350Y024550D02*
X017550Y024550D01*
X017550Y024350D01*
X016850Y024550D02*
X016650Y024550D01*
X016650Y024350D01*
X016550Y024350D02*
X016550Y024550D01*
X016350Y024550D01*
X016350Y024650D02*
X016550Y024650D01*
X016550Y024850D01*
X016650Y024850D02*
X016650Y024650D01*
X016850Y024650D01*
X015850Y024650D02*
X015650Y024650D01*
X015650Y024850D01*
X015550Y024850D02*
X015550Y024650D01*
X015350Y024650D01*
X015350Y024550D02*
X015550Y024550D01*
X015550Y024350D01*
X015650Y024350D02*
X015650Y024550D01*
X015850Y024550D01*
X015650Y025350D02*
X015650Y025550D01*
X015850Y025550D01*
X015850Y025650D02*
X015650Y025650D01*
X015650Y025850D01*
X015550Y025850D02*
X015550Y025650D01*
X015350Y025650D01*
X015350Y025550D02*
X015550Y025550D01*
X015550Y025350D01*
X011557Y026950D02*
X011130Y026950D01*
X009739Y024271D02*
X009419Y024271D01*
X009419Y023630D01*
X009739Y023630D01*
X009846Y023737D01*
X009846Y024164D01*
X009739Y024271D01*
X009202Y024271D02*
X009202Y023630D01*
X008775Y024271D01*
X008775Y023630D01*
X008557Y023737D02*
X008557Y023950D01*
X008344Y023950D01*
X008557Y023737D02*
X008450Y023630D01*
X008237Y023630D01*
X008130Y023737D01*
X008130Y024164D01*
X008237Y024271D01*
X008450Y024271D01*
X008557Y024164D01*
X000750Y027600D02*
X000752Y027673D01*
X000758Y027746D01*
X000768Y027818D01*
X000782Y027890D01*
X000799Y027961D01*
X000821Y028031D01*
X000846Y028100D01*
X000875Y028167D01*
X000907Y028232D01*
X000943Y028296D01*
X000983Y028358D01*
X001025Y028417D01*
X001071Y028474D01*
X001120Y028528D01*
X001172Y028580D01*
X001226Y028629D01*
X001283Y028675D01*
X001342Y028717D01*
X001404Y028757D01*
X001468Y028793D01*
X001533Y028825D01*
X001600Y028854D01*
X001669Y028879D01*
X001739Y028901D01*
X001810Y028918D01*
X001882Y028932D01*
X001954Y028942D01*
X002027Y028948D01*
X002100Y028950D01*
X002173Y028948D01*
X002246Y028942D01*
X002318Y028932D01*
X002390Y028918D01*
X002461Y028901D01*
X002531Y028879D01*
X002600Y028854D01*
X002667Y028825D01*
X002732Y028793D01*
X002796Y028757D01*
X002858Y028717D01*
X002917Y028675D01*
X002974Y028629D01*
X003028Y028580D01*
X003080Y028528D01*
X003129Y028474D01*
X003175Y028417D01*
X003217Y028358D01*
X003257Y028296D01*
X003293Y028232D01*
X003325Y028167D01*
X003354Y028100D01*
X003379Y028031D01*
X003401Y027961D01*
X003418Y027890D01*
X003432Y027818D01*
X003442Y027746D01*
X003448Y027673D01*
X003450Y027600D01*
X003448Y027527D01*
X003442Y027454D01*
X003432Y027382D01*
X003418Y027310D01*
X003401Y027239D01*
X003379Y027169D01*
X003354Y027100D01*
X003325Y027033D01*
X003293Y026968D01*
X003257Y026904D01*
X003217Y026842D01*
X003175Y026783D01*
X003129Y026726D01*
X003080Y026672D01*
X003028Y026620D01*
X002974Y026571D01*
X002917Y026525D01*
X002858Y026483D01*
X002796Y026443D01*
X002732Y026407D01*
X002667Y026375D01*
X002600Y026346D01*
X002531Y026321D01*
X002461Y026299D01*
X002390Y026282D01*
X002318Y026268D01*
X002246Y026258D01*
X002173Y026252D01*
X002100Y026250D01*
X002027Y026252D01*
X001954Y026258D01*
X001882Y026268D01*
X001810Y026282D01*
X001739Y026299D01*
X001669Y026321D01*
X001600Y026346D01*
X001533Y026375D01*
X001468Y026407D01*
X001404Y026443D01*
X001342Y026483D01*
X001283Y026525D01*
X001226Y026571D01*
X001172Y026620D01*
X001120Y026672D01*
X001071Y026726D01*
X001025Y026783D01*
X000983Y026842D01*
X000943Y026904D01*
X000907Y026968D01*
X000875Y027033D01*
X000846Y027100D01*
X000821Y027169D01*
X000799Y027239D01*
X000782Y027310D01*
X000768Y027382D01*
X000758Y027454D01*
X000752Y027527D01*
X000750Y027600D01*
X004650Y013050D02*
X004650Y012850D01*
X004650Y013050D02*
X004850Y013050D01*
X005350Y013050D02*
X005550Y013050D01*
X005550Y012850D01*
X005650Y012850D02*
X005650Y013050D01*
X005850Y013050D01*
X006350Y013050D02*
X006550Y013050D01*
X006550Y012850D01*
X006550Y012350D02*
X006550Y012150D01*
X006350Y012150D01*
X005850Y012150D02*
X005650Y012150D01*
X005650Y012350D01*
X005550Y012350D02*
X005550Y012150D01*
X005350Y012150D01*
X004850Y012150D02*
X004650Y012150D01*
X004650Y012350D01*
X004650Y009050D02*
X004650Y008850D01*
X004650Y009050D02*
X004850Y009050D01*
X005350Y009050D02*
X005550Y009050D01*
X005550Y008850D01*
X005650Y008850D02*
X005650Y009050D01*
X005850Y009050D01*
X006350Y009050D02*
X006550Y009050D01*
X006550Y008850D01*
X006550Y008350D02*
X006550Y008150D01*
X006350Y008150D01*
X005850Y008150D02*
X005650Y008150D01*
X005650Y008350D01*
X005550Y008350D02*
X005550Y008150D01*
X005350Y008150D01*
X004850Y008150D02*
X004650Y008150D01*
X004650Y008350D01*
X000750Y002100D02*
X000752Y002173D01*
X000758Y002246D01*
X000768Y002318D01*
X000782Y002390D01*
X000799Y002461D01*
X000821Y002531D01*
X000846Y002600D01*
X000875Y002667D01*
X000907Y002732D01*
X000943Y002796D01*
X000983Y002858D01*
X001025Y002917D01*
X001071Y002974D01*
X001120Y003028D01*
X001172Y003080D01*
X001226Y003129D01*
X001283Y003175D01*
X001342Y003217D01*
X001404Y003257D01*
X001468Y003293D01*
X001533Y003325D01*
X001600Y003354D01*
X001669Y003379D01*
X001739Y003401D01*
X001810Y003418D01*
X001882Y003432D01*
X001954Y003442D01*
X002027Y003448D01*
X002100Y003450D01*
X002173Y003448D01*
X002246Y003442D01*
X002318Y003432D01*
X002390Y003418D01*
X002461Y003401D01*
X002531Y003379D01*
X002600Y003354D01*
X002667Y003325D01*
X002732Y003293D01*
X002796Y003257D01*
X002858Y003217D01*
X002917Y003175D01*
X002974Y003129D01*
X003028Y003080D01*
X003080Y003028D01*
X003129Y002974D01*
X003175Y002917D01*
X003217Y002858D01*
X003257Y002796D01*
X003293Y002732D01*
X003325Y002667D01*
X003354Y002600D01*
X003379Y002531D01*
X003401Y002461D01*
X003418Y002390D01*
X003432Y002318D01*
X003442Y002246D01*
X003448Y002173D01*
X003450Y002100D01*
X003448Y002027D01*
X003442Y001954D01*
X003432Y001882D01*
X003418Y001810D01*
X003401Y001739D01*
X003379Y001669D01*
X003354Y001600D01*
X003325Y001533D01*
X003293Y001468D01*
X003257Y001404D01*
X003217Y001342D01*
X003175Y001283D01*
X003129Y001226D01*
X003080Y001172D01*
X003028Y001120D01*
X002974Y001071D01*
X002917Y001025D01*
X002858Y000983D01*
X002796Y000943D01*
X002732Y000907D01*
X002667Y000875D01*
X002600Y000846D01*
X002531Y000821D01*
X002461Y000799D01*
X002390Y000782D01*
X002318Y000768D01*
X002246Y000758D01*
X002173Y000752D01*
X002100Y000750D01*
X002027Y000752D01*
X001954Y000758D01*
X001882Y000768D01*
X001810Y000782D01*
X001739Y000799D01*
X001669Y000821D01*
X001600Y000846D01*
X001533Y000875D01*
X001468Y000907D01*
X001404Y000943D01*
X001342Y000983D01*
X001283Y001025D01*
X001226Y001071D01*
X001172Y001120D01*
X001120Y001172D01*
X001071Y001226D01*
X001025Y001283D01*
X000983Y001342D01*
X000943Y001404D01*
X000907Y001468D01*
X000875Y001533D01*
X000846Y001600D01*
X000821Y001669D01*
X000799Y001739D01*
X000782Y001810D01*
X000768Y001882D01*
X000758Y001954D01*
X000752Y002027D01*
X000750Y002100D01*
X024750Y027600D02*
X024752Y027673D01*
X024758Y027746D01*
X024768Y027818D01*
X024782Y027890D01*
X024799Y027961D01*
X024821Y028031D01*
X024846Y028100D01*
X024875Y028167D01*
X024907Y028232D01*
X024943Y028296D01*
X024983Y028358D01*
X025025Y028417D01*
X025071Y028474D01*
X025120Y028528D01*
X025172Y028580D01*
X025226Y028629D01*
X025283Y028675D01*
X025342Y028717D01*
X025404Y028757D01*
X025468Y028793D01*
X025533Y028825D01*
X025600Y028854D01*
X025669Y028879D01*
X025739Y028901D01*
X025810Y028918D01*
X025882Y028932D01*
X025954Y028942D01*
X026027Y028948D01*
X026100Y028950D01*
X026173Y028948D01*
X026246Y028942D01*
X026318Y028932D01*
X026390Y028918D01*
X026461Y028901D01*
X026531Y028879D01*
X026600Y028854D01*
X026667Y028825D01*
X026732Y028793D01*
X026796Y028757D01*
X026858Y028717D01*
X026917Y028675D01*
X026974Y028629D01*
X027028Y028580D01*
X027080Y028528D01*
X027129Y028474D01*
X027175Y028417D01*
X027217Y028358D01*
X027257Y028296D01*
X027293Y028232D01*
X027325Y028167D01*
X027354Y028100D01*
X027379Y028031D01*
X027401Y027961D01*
X027418Y027890D01*
X027432Y027818D01*
X027442Y027746D01*
X027448Y027673D01*
X027450Y027600D01*
X027448Y027527D01*
X027442Y027454D01*
X027432Y027382D01*
X027418Y027310D01*
X027401Y027239D01*
X027379Y027169D01*
X027354Y027100D01*
X027325Y027033D01*
X027293Y026968D01*
X027257Y026904D01*
X027217Y026842D01*
X027175Y026783D01*
X027129Y026726D01*
X027080Y026672D01*
X027028Y026620D01*
X026974Y026571D01*
X026917Y026525D01*
X026858Y026483D01*
X026796Y026443D01*
X026732Y026407D01*
X026667Y026375D01*
X026600Y026346D01*
X026531Y026321D01*
X026461Y026299D01*
X026390Y026282D01*
X026318Y026268D01*
X026246Y026258D01*
X026173Y026252D01*
X026100Y026250D01*
X026027Y026252D01*
X025954Y026258D01*
X025882Y026268D01*
X025810Y026282D01*
X025739Y026299D01*
X025669Y026321D01*
X025600Y026346D01*
X025533Y026375D01*
X025468Y026407D01*
X025404Y026443D01*
X025342Y026483D01*
X025283Y026525D01*
X025226Y026571D01*
X025172Y026620D01*
X025120Y026672D01*
X025071Y026726D01*
X025025Y026783D01*
X024983Y026842D01*
X024943Y026904D01*
X024907Y026968D01*
X024875Y027033D01*
X024846Y027100D01*
X024821Y027169D01*
X024799Y027239D01*
X024782Y027310D01*
X024768Y027382D01*
X024758Y027454D01*
X024752Y027527D01*
X024750Y027600D01*
D12*
X017305Y022876D02*
X015730Y022876D01*
X015730Y021498D01*
X015297Y021498D01*
X015297Y022876D01*
X014864Y022876D01*
X014864Y021458D01*
X014391Y021458D01*
X014391Y022876D01*
X013919Y022876D01*
X013919Y021458D01*
X013525Y021458D01*
X013525Y022915D01*
X013171Y022915D01*
X013171Y020986D01*
X013171Y020946D02*
X013171Y020710D01*
X015730Y020710D01*
D13*
X014837Y019164D02*
X014576Y019164D01*
X014576Y018644D01*
X014576Y018817D02*
X014837Y018817D01*
X014923Y018904D01*
X014923Y019077D01*
X014837Y019164D01*
X014408Y019077D02*
X014321Y019164D01*
X014148Y019164D01*
X014061Y019077D01*
X014061Y018991D01*
X014148Y018904D01*
X014321Y018904D01*
X014408Y018817D01*
X014408Y018730D01*
X014321Y018644D01*
X014148Y018644D01*
X014061Y018730D01*
X013892Y018644D02*
X013545Y018644D01*
X013545Y019164D01*
X013892Y019164D01*
X013719Y018904D02*
X013545Y018904D01*
X015608Y018904D02*
X015955Y018904D01*
X016639Y018991D02*
X016813Y019164D01*
X016813Y018644D01*
X016986Y018644D02*
X016639Y018644D01*
X017155Y018644D02*
X017502Y018991D01*
X017502Y019077D01*
X017415Y019164D01*
X017241Y019164D01*
X017155Y019077D01*
X017155Y018644D02*
X017502Y018644D01*
D14*
X021125Y021575D02*
X021352Y021575D01*
X021238Y021575D02*
X021238Y021915D01*
X021125Y021802D01*
X022125Y021859D02*
X022182Y021915D01*
X022295Y021915D01*
X022352Y021859D01*
X022352Y021802D01*
X022125Y021575D01*
X022352Y021575D01*
X023125Y021632D02*
X023182Y021575D01*
X023295Y021575D01*
X023352Y021632D01*
X023352Y021688D01*
X023295Y021745D01*
X023238Y021745D01*
X023295Y021745D02*
X023352Y021802D01*
X023352Y021859D01*
X023295Y021915D01*
X023182Y021915D01*
X023125Y021859D01*
X021486Y023275D02*
X021185Y023275D01*
X021336Y023275D02*
X021336Y023725D01*
X021185Y023575D01*
X021025Y023725D02*
X020875Y023725D01*
X020950Y023725D02*
X020950Y023350D01*
X020875Y023275D01*
X020800Y023275D01*
X020725Y023350D01*
X022175Y019125D02*
X022475Y019125D01*
X022325Y019125D02*
X022325Y018675D01*
X022635Y018675D02*
X022936Y019125D01*
X022635Y019125D02*
X022936Y018675D01*
X013277Y024750D02*
X013202Y024675D01*
X013052Y024675D01*
X012977Y024750D01*
X012977Y024825D01*
X013052Y024900D01*
X013202Y024900D01*
X013277Y024825D01*
X013277Y024750D01*
X013202Y024900D02*
X013277Y024975D01*
X013277Y025050D01*
X013202Y025125D01*
X013052Y025125D01*
X012977Y025050D01*
X012977Y024975D01*
X013052Y024900D01*
X012817Y024675D02*
X012517Y025125D01*
X012817Y025125D02*
X012517Y024675D01*
X012356Y024600D02*
X012056Y024600D01*
X011896Y024750D02*
X011821Y024675D01*
X011596Y024675D01*
X011596Y025125D01*
X011821Y025125D01*
X011896Y025050D01*
X011896Y024750D01*
X011436Y024675D02*
X011436Y025125D01*
X011135Y025125D02*
X011135Y024675D01*
X010975Y024750D02*
X010975Y024900D01*
X010825Y024900D01*
X010675Y024750D02*
X010750Y024675D01*
X010900Y024675D01*
X010975Y024750D01*
X010675Y024750D02*
X010675Y025050D01*
X010750Y025125D01*
X010900Y025125D01*
X010975Y025050D01*
X011135Y025125D02*
X011436Y024675D01*
X011596Y025600D02*
X011896Y025600D01*
X012056Y025675D02*
X012356Y026125D01*
X012517Y026050D02*
X012517Y025975D01*
X012592Y025900D01*
X012742Y025900D01*
X012817Y025825D01*
X012817Y025750D01*
X012742Y025675D01*
X012592Y025675D01*
X012517Y025750D01*
X012517Y025825D01*
X012592Y025900D01*
X012742Y025900D02*
X012817Y025975D01*
X012817Y026050D01*
X012742Y026125D01*
X012592Y026125D01*
X012517Y026050D01*
X012356Y025675D02*
X012056Y026125D01*
X011436Y026125D02*
X011436Y025825D01*
X011286Y025675D01*
X011135Y025825D01*
X011135Y026125D01*
X010975Y026125D02*
X010675Y026125D01*
X010675Y025900D01*
X010825Y025975D01*
X010900Y025975D01*
X010975Y025900D01*
X010975Y025750D01*
X010900Y025675D01*
X010750Y025675D01*
X010675Y025750D01*
D15*
X001470Y027600D02*
X001472Y027650D01*
X001478Y027700D01*
X001488Y027749D01*
X001502Y027797D01*
X001519Y027844D01*
X001540Y027889D01*
X001565Y027933D01*
X001593Y027974D01*
X001625Y028013D01*
X001659Y028050D01*
X001696Y028084D01*
X001736Y028114D01*
X001778Y028141D01*
X001822Y028165D01*
X001868Y028186D01*
X001915Y028202D01*
X001963Y028215D01*
X002013Y028224D01*
X002062Y028229D01*
X002113Y028230D01*
X002163Y028227D01*
X002212Y028220D01*
X002261Y028209D01*
X002309Y028194D01*
X002355Y028176D01*
X002400Y028154D01*
X002443Y028128D01*
X002484Y028099D01*
X002523Y028067D01*
X002559Y028032D01*
X002591Y027994D01*
X002621Y027954D01*
X002648Y027911D01*
X002671Y027867D01*
X002690Y027821D01*
X002706Y027773D01*
X002718Y027724D01*
X002726Y027675D01*
X002730Y027625D01*
X002730Y027575D01*
X002726Y027525D01*
X002718Y027476D01*
X002706Y027427D01*
X002690Y027379D01*
X002671Y027333D01*
X002648Y027289D01*
X002621Y027246D01*
X002591Y027206D01*
X002559Y027168D01*
X002523Y027133D01*
X002484Y027101D01*
X002443Y027072D01*
X002400Y027046D01*
X002355Y027024D01*
X002309Y027006D01*
X002261Y026991D01*
X002212Y026980D01*
X002163Y026973D01*
X002113Y026970D01*
X002062Y026971D01*
X002013Y026976D01*
X001963Y026985D01*
X001915Y026998D01*
X001868Y027014D01*
X001822Y027035D01*
X001778Y027059D01*
X001736Y027086D01*
X001696Y027116D01*
X001659Y027150D01*
X001625Y027187D01*
X001593Y027226D01*
X001565Y027267D01*
X001540Y027311D01*
X001519Y027356D01*
X001502Y027403D01*
X001488Y027451D01*
X001478Y027500D01*
X001472Y027550D01*
X001470Y027600D01*
X001470Y002100D02*
X001472Y002150D01*
X001478Y002200D01*
X001488Y002249D01*
X001502Y002297D01*
X001519Y002344D01*
X001540Y002389D01*
X001565Y002433D01*
X001593Y002474D01*
X001625Y002513D01*
X001659Y002550D01*
X001696Y002584D01*
X001736Y002614D01*
X001778Y002641D01*
X001822Y002665D01*
X001868Y002686D01*
X001915Y002702D01*
X001963Y002715D01*
X002013Y002724D01*
X002062Y002729D01*
X002113Y002730D01*
X002163Y002727D01*
X002212Y002720D01*
X002261Y002709D01*
X002309Y002694D01*
X002355Y002676D01*
X002400Y002654D01*
X002443Y002628D01*
X002484Y002599D01*
X002523Y002567D01*
X002559Y002532D01*
X002591Y002494D01*
X002621Y002454D01*
X002648Y002411D01*
X002671Y002367D01*
X002690Y002321D01*
X002706Y002273D01*
X002718Y002224D01*
X002726Y002175D01*
X002730Y002125D01*
X002730Y002075D01*
X002726Y002025D01*
X002718Y001976D01*
X002706Y001927D01*
X002690Y001879D01*
X002671Y001833D01*
X002648Y001789D01*
X002621Y001746D01*
X002591Y001706D01*
X002559Y001668D01*
X002523Y001633D01*
X002484Y001601D01*
X002443Y001572D01*
X002400Y001546D01*
X002355Y001524D01*
X002309Y001506D01*
X002261Y001491D01*
X002212Y001480D01*
X002163Y001473D01*
X002113Y001470D01*
X002062Y001471D01*
X002013Y001476D01*
X001963Y001485D01*
X001915Y001498D01*
X001868Y001514D01*
X001822Y001535D01*
X001778Y001559D01*
X001736Y001586D01*
X001696Y001616D01*
X001659Y001650D01*
X001625Y001687D01*
X001593Y001726D01*
X001565Y001767D01*
X001540Y001811D01*
X001519Y001856D01*
X001502Y001903D01*
X001488Y001951D01*
X001478Y002000D01*
X001472Y002050D01*
X001470Y002100D01*
X025470Y002100D02*
X025472Y002150D01*
X025478Y002200D01*
X025488Y002249D01*
X025502Y002297D01*
X025519Y002344D01*
X025540Y002389D01*
X025565Y002433D01*
X025593Y002474D01*
X025625Y002513D01*
X025659Y002550D01*
X025696Y002584D01*
X025736Y002614D01*
X025778Y002641D01*
X025822Y002665D01*
X025868Y002686D01*
X025915Y002702D01*
X025963Y002715D01*
X026013Y002724D01*
X026062Y002729D01*
X026113Y002730D01*
X026163Y002727D01*
X026212Y002720D01*
X026261Y002709D01*
X026309Y002694D01*
X026355Y002676D01*
X026400Y002654D01*
X026443Y002628D01*
X026484Y002599D01*
X026523Y002567D01*
X026559Y002532D01*
X026591Y002494D01*
X026621Y002454D01*
X026648Y002411D01*
X026671Y002367D01*
X026690Y002321D01*
X026706Y002273D01*
X026718Y002224D01*
X026726Y002175D01*
X026730Y002125D01*
X026730Y002075D01*
X026726Y002025D01*
X026718Y001976D01*
X026706Y001927D01*
X026690Y001879D01*
X026671Y001833D01*
X026648Y001789D01*
X026621Y001746D01*
X026591Y001706D01*
X026559Y001668D01*
X026523Y001633D01*
X026484Y001601D01*
X026443Y001572D01*
X026400Y001546D01*
X026355Y001524D01*
X026309Y001506D01*
X026261Y001491D01*
X026212Y001480D01*
X026163Y001473D01*
X026113Y001470D01*
X026062Y001471D01*
X026013Y001476D01*
X025963Y001485D01*
X025915Y001498D01*
X025868Y001514D01*
X025822Y001535D01*
X025778Y001559D01*
X025736Y001586D01*
X025696Y001616D01*
X025659Y001650D01*
X025625Y001687D01*
X025593Y001726D01*
X025565Y001767D01*
X025540Y001811D01*
X025519Y001856D01*
X025502Y001903D01*
X025488Y001951D01*
X025478Y002000D01*
X025472Y002050D01*
X025470Y002100D01*
X025470Y027600D02*
X025472Y027650D01*
X025478Y027700D01*
X025488Y027749D01*
X025502Y027797D01*
X025519Y027844D01*
X025540Y027889D01*
X025565Y027933D01*
X025593Y027974D01*
X025625Y028013D01*
X025659Y028050D01*
X025696Y028084D01*
X025736Y028114D01*
X025778Y028141D01*
X025822Y028165D01*
X025868Y028186D01*
X025915Y028202D01*
X025963Y028215D01*
X026013Y028224D01*
X026062Y028229D01*
X026113Y028230D01*
X026163Y028227D01*
X026212Y028220D01*
X026261Y028209D01*
X026309Y028194D01*
X026355Y028176D01*
X026400Y028154D01*
X026443Y028128D01*
X026484Y028099D01*
X026523Y028067D01*
X026559Y028032D01*
X026591Y027994D01*
X026621Y027954D01*
X026648Y027911D01*
X026671Y027867D01*
X026690Y027821D01*
X026706Y027773D01*
X026718Y027724D01*
X026726Y027675D01*
X026730Y027625D01*
X026730Y027575D01*
X026726Y027525D01*
X026718Y027476D01*
X026706Y027427D01*
X026690Y027379D01*
X026671Y027333D01*
X026648Y027289D01*
X026621Y027246D01*
X026591Y027206D01*
X026559Y027168D01*
X026523Y027133D01*
X026484Y027101D01*
X026443Y027072D01*
X026400Y027046D01*
X026355Y027024D01*
X026309Y027006D01*
X026261Y026991D01*
X026212Y026980D01*
X026163Y026973D01*
X026113Y026970D01*
X026062Y026971D01*
X026013Y026976D01*
X025963Y026985D01*
X025915Y026998D01*
X025868Y027014D01*
X025822Y027035D01*
X025778Y027059D01*
X025736Y027086D01*
X025696Y027116D01*
X025659Y027150D01*
X025625Y027187D01*
X025593Y027226D01*
X025565Y027267D01*
X025540Y027311D01*
X025519Y027356D01*
X025502Y027403D01*
X025488Y027451D01*
X025478Y027500D01*
X025472Y027550D01*
X025470Y027600D01*
M02*
