G75*
%MOIN*%
%OFA0B0*%
%FSLAX24Y24*%
%IPPOS*%
%LPD*%
%AMOC8*
5,1,8,0,0,1.08239X$1,22.5*
%
%ADD10C,0.0556*%
%ADD11OC8,0.0930*%
%ADD12C,0.0640*%
%ADD13C,0.1261*%
D10*
X011829Y014372D02*
X012305Y014372D01*
X012305Y015159D02*
X011829Y015159D01*
X011829Y015946D02*
X012305Y015946D01*
X012305Y016734D02*
X011829Y016734D01*
X011829Y017521D02*
X012305Y017521D01*
X012305Y018309D02*
X011829Y018309D01*
X011829Y019096D02*
X012305Y019096D01*
X012305Y019883D02*
X011829Y019883D01*
X017817Y019883D02*
X018292Y019883D01*
X018292Y019096D02*
X017817Y019096D01*
X017817Y018309D02*
X018292Y018309D01*
X018292Y017521D02*
X017817Y017521D01*
X017817Y016734D02*
X018292Y016734D01*
X018292Y015946D02*
X017817Y015946D01*
X017817Y015159D02*
X018292Y015159D01*
X018292Y014372D02*
X017817Y014372D01*
D11*
X022600Y016100D03*
X022600Y017100D03*
X022600Y018100D03*
X022600Y012600D03*
X023600Y012600D03*
X023600Y008600D03*
X022600Y008600D03*
X018100Y024100D03*
X018100Y025100D03*
X018100Y026100D03*
X017100Y026100D03*
X017100Y025100D03*
X017100Y024100D03*
X016100Y024100D03*
X016100Y025100D03*
X016100Y026100D03*
X015100Y026100D03*
X015100Y025100D03*
X015100Y024100D03*
X014100Y024100D03*
X014100Y025100D03*
X014100Y026100D03*
X013100Y026100D03*
X013100Y025100D03*
X013100Y024100D03*
X012100Y024100D03*
X012100Y025100D03*
X012100Y026100D03*
X011100Y026100D03*
X011100Y025100D03*
X011100Y024100D03*
X006100Y012600D03*
X005100Y012600D03*
X005100Y008600D03*
X006100Y008600D03*
D12*
X021100Y022320D02*
X021100Y022880D01*
X022100Y022880D02*
X022100Y022320D01*
X023100Y022320D02*
X023100Y022880D01*
D13*
X002100Y002100D03*
X026100Y002100D03*
X026100Y027600D03*
X002100Y027600D03*
M02*
